<?xml version="1.0" encoding="UTF-8"?><svg xmlns="http://www.w3.org/2000/svg" width="1200" height="630" viewBox="0 0 1200 630" role="img" aria-label="Empty export state"><rect x="0" y="0" width="1200" height="630" fill="#ffffff"></rect><text x="48" y="82" fill="#1a1a1a" font-family="&quot;IBM Plex Sans&quot;, ui-sans-serif, system-ui, sans-serif" font-size="34" font-weight="700">Empty export state</text><text x="48" y="118" fill="#6b7280" font-family="&quot;IBM Plex Sans&quot;, ui-sans-serif, system-ui, sans-serif" font-size="18">No event data available for this card</text><svg x="458.1714285714286" y="144.00000000000003" width="283.65714285714284" height="437.99999999999994"><svg viewBox="0 0 105 68" overflow="hidden" preserveAspectRatio="xMidYMid meet" role="img" aria-label="Heatmap: no events" style="width:100%;aspect-ratio:105 / 68;display:block;pointer-events:none"><svg x="0" y="0" width="105" height="68" viewBox="0 0 105 68" overflow="hidden"><g data-stadia="pitch-background"><rect x="0" y="0" width="105" height="68" fill="#ffffff" stroke="none"></rect></g><g data-campos="heatmap-cells"><style>
    [data-campos="heatmap-cells"] > rect:focus { outline: none; }
    [data-campos="heatmap-cells"] > rect:focus-visible {
      outline: 2px solid var(--campos-focus-ring, #0f172a);
      outline-offset: -1px;
      border-radius: 2px;
    }
  </style><rect x="0" y="59.5" width="8.750000000000002" height="8.5" fill="rgba(0,0,0,0)" opacity="0" style="--campos-focus-ring:#ffffff;pointer-events:none"></rect><rect x="8.750000000000002" y="59.5" width="8.750000000000002" height="8.5" fill="rgba(0,0,0,0)" opacity="0" style="--campos-focus-ring:#ffffff;pointer-events:none"></rect><rect x="17.500000000000004" y="59.5" width="8.749999999999996" height="8.5" fill="rgba(0,0,0,0)" opacity="0" style="--campos-focus-ring:#ffffff;pointer-events:none"></rect><rect x="26.25" y="59.5" width="8.750000000000007" height="8.5" fill="rgba(0,0,0,0)" opacity="0" style="--campos-focus-ring:#ffffff;pointer-events:none"></rect><rect x="35.00000000000001" y="59.5" width="8.75" height="8.5" fill="rgba(0,0,0,0)" opacity="0" style="--campos-focus-ring:#ffffff;pointer-events:none"></rect><rect x="43.75000000000001" y="59.5" width="8.749999999999993" height="8.5" fill="rgba(0,0,0,0)" opacity="0" style="--campos-focus-ring:#ffffff;pointer-events:none"></rect><rect x="52.5" y="59.5" width="8.750000000000007" height="8.5" fill="rgba(0,0,0,0)" opacity="0" style="--campos-focus-ring:#ffffff;pointer-events:none"></rect><rect x="61.25000000000001" y="59.5" width="8.750000000000007" height="8.5" fill="rgba(0,0,0,0)" opacity="0" style="--campos-focus-ring:#ffffff;pointer-events:none"></rect><rect x="70.00000000000001" y="59.5" width="8.749999999999986" height="8.5" fill="rgba(0,0,0,0)" opacity="0" style="--campos-focus-ring:#ffffff;pointer-events:none"></rect><rect x="78.75" y="59.5" width="8.750000000000014" height="8.5" fill="rgba(0,0,0,0)" opacity="0" style="--campos-focus-ring:#ffffff;pointer-events:none"></rect><rect x="87.50000000000001" y="59.5" width="8.75" height="8.5" fill="rgba(0,0,0,0)" opacity="0" style="--campos-focus-ring:#ffffff;pointer-events:none"></rect><rect x="96.25000000000001" y="59.5" width="8.749999999999986" height="8.5" fill="rgba(0,0,0,0)" opacity="0" style="--campos-focus-ring:#ffffff;pointer-events:none"></rect><rect x="0" y="51" width="8.750000000000002" height="8.5" fill="rgba(0,0,0,0)" opacity="0" style="--campos-focus-ring:#ffffff;pointer-events:none"></rect><rect x="8.750000000000002" y="51" width="8.750000000000002" height="8.5" fill="rgba(0,0,0,0)" opacity="0" style="--campos-focus-ring:#ffffff;pointer-events:none"></rect><rect x="17.500000000000004" y="51" width="8.749999999999996" height="8.5" fill="rgba(0,0,0,0)" opacity="0" style="--campos-focus-ring:#ffffff;pointer-events:none"></rect><rect x="26.25" y="51" width="8.750000000000007" height="8.5" fill="rgba(0,0,0,0)" opacity="0" style="--campos-focus-ring:#ffffff;pointer-events:none"></rect><rect x="35.00000000000001" y="51" width="8.75" height="8.5" fill="rgba(0,0,0,0)" opacity="0" style="--campos-focus-ring:#ffffff;pointer-events:none"></rect><rect x="43.75000000000001" y="51" width="8.749999999999993" height="8.5" fill="rgba(0,0,0,0)" opacity="0" style="--campos-focus-ring:#ffffff;pointer-events:none"></rect><rect x="52.5" y="51" width="8.750000000000007" height="8.5" fill="rgba(0,0,0,0)" opacity="0" style="--campos-focus-ring:#ffffff;pointer-events:none"></rect><rect x="61.25000000000001" y="51" width="8.750000000000007" height="8.5" fill="rgba(0,0,0,0)" opacity="0" style="--campos-focus-ring:#ffffff;pointer-events:none"></rect><rect x="70.00000000000001" y="51" width="8.749999999999986" height="8.5" fill="rgba(0,0,0,0)" opacity="0" style="--campos-focus-ring:#ffffff;pointer-events:none"></rect><rect x="78.75" y="51" width="8.750000000000014" height="8.5" fill="rgba(0,0,0,0)" opacity="0" style="--campos-focus-ring:#ffffff;pointer-events:none"></rect><rect x="87.50000000000001" y="51" width="8.75" height="8.5" fill="rgba(0,0,0,0)" opacity="0" style="--campos-focus-ring:#ffffff;pointer-events:none"></rect><rect x="96.25000000000001" y="51" width="8.749999999999986" height="8.5" fill="rgba(0,0,0,0)" opacity="0" style="--campos-focus-ring:#ffffff;pointer-events:none"></rect><rect x="0" y="42.5" width="8.750000000000002" height="8.5" fill="rgba(0,0,0,0)" opacity="0" style="--campos-focus-ring:#ffffff;pointer-events:none"></rect><rect x="8.750000000000002" y="42.5" width="8.750000000000002" height="8.5" fill="rgba(0,0,0,0)" opacity="0" style="--campos-focus-ring:#ffffff;pointer-events:none"></rect><rect x="17.500000000000004" y="42.5" width="8.749999999999996" height="8.5" fill="rgba(0,0,0,0)" opacity="0" style="--campos-focus-ring:#ffffff;pointer-events:none"></rect><rect x="26.25" y="42.5" width="8.750000000000007" height="8.5" fill="rgba(0,0,0,0)" opacity="0" style="--campos-focus-ring:#ffffff;pointer-events:none"></rect><rect x="35.00000000000001" y="42.5" width="8.75" height="8.5" fill="rgba(0,0,0,0)" opacity="0" style="--campos-focus-ring:#ffffff;pointer-events:none"></rect><rect x="43.75000000000001" y="42.5" width="8.749999999999993" height="8.5" fill="rgba(0,0,0,0)" opacity="0" style="--campos-focus-ring:#ffffff;pointer-events:none"></rect><rect x="52.5" y="42.5" width="8.750000000000007" height="8.5" fill="rgba(0,0,0,0)" opacity="0" style="--campos-focus-ring:#ffffff;pointer-events:none"></rect><rect x="61.25000000000001" y="42.5" width="8.750000000000007" height="8.5" fill="rgba(0,0,0,0)" opacity="0" style="--campos-focus-ring:#ffffff;pointer-events:none"></rect><rect x="70.00000000000001" y="42.5" width="8.749999999999986" height="8.5" fill="rgba(0,0,0,0)" opacity="0" style="--campos-focus-ring:#ffffff;pointer-events:none"></rect><rect x="78.75" y="42.5" width="8.750000000000014" height="8.5" fill="rgba(0,0,0,0)" opacity="0" style="--campos-focus-ring:#ffffff;pointer-events:none"></rect><rect x="87.50000000000001" y="42.5" width="8.75" height="8.5" fill="rgba(0,0,0,0)" opacity="0" style="--campos-focus-ring:#ffffff;pointer-events:none"></rect><rect x="96.25000000000001" y="42.5" width="8.749999999999986" height="8.5" fill="rgba(0,0,0,0)" opacity="0" style="--campos-focus-ring:#ffffff;pointer-events:none"></rect><rect x="0" y="34" width="8.750000000000002" height="8.5" fill="rgba(0,0,0,0)" opacity="0" style="--campos-focus-ring:#ffffff;pointer-events:none"></rect><rect x="8.750000000000002" y="34" width="8.750000000000002" height="8.5" fill="rgba(0,0,0,0)" opacity="0" style="--campos-focus-ring:#ffffff;pointer-events:none"></rect><rect x="17.500000000000004" y="34" width="8.749999999999996" height="8.5" fill="rgba(0,0,0,0)" opacity="0" style="--campos-focus-ring:#ffffff;pointer-events:none"></rect><rect x="26.25" y="34" width="8.750000000000007" height="8.5" fill="rgba(0,0,0,0)" opacity="0" style="--campos-focus-ring:#ffffff;pointer-events:none"></rect><rect x="35.00000000000001" y="34" width="8.75" height="8.5" fill="rgba(0,0,0,0)" opacity="0" style="--campos-focus-ring:#ffffff;pointer-events:none"></rect><rect x="43.75000000000001" y="34" width="8.749999999999993" height="8.5" fill="rgba(0,0,0,0)" opacity="0" style="--campos-focus-ring:#ffffff;pointer-events:none"></rect><rect x="52.5" y="34" width="8.750000000000007" height="8.5" fill="rgba(0,0,0,0)" opacity="0" style="--campos-focus-ring:#ffffff;pointer-events:none"></rect><rect x="61.25000000000001" y="34" width="8.750000000000007" height="8.5" fill="rgba(0,0,0,0)" opacity="0" style="--campos-focus-ring:#ffffff;pointer-events:none"></rect><rect x="70.00000000000001" y="34" width="8.749999999999986" height="8.5" fill="rgba(0,0,0,0)" opacity="0" style="--campos-focus-ring:#ffffff;pointer-events:none"></rect><rect x="78.75" y="34" width="8.750000000000014" height="8.5" fill="rgba(0,0,0,0)" opacity="0" style="--campos-focus-ring:#ffffff;pointer-events:none"></rect><rect x="87.50000000000001" y="34" width="8.75" height="8.5" fill="rgba(0,0,0,0)" opacity="0" style="--campos-focus-ring:#ffffff;pointer-events:none"></rect><rect x="96.25000000000001" y="34" width="8.749999999999986" height="8.5" fill="rgba(0,0,0,0)" opacity="0" style="--campos-focus-ring:#ffffff;pointer-events:none"></rect><rect x="0" y="25.5" width="8.750000000000002" height="8.5" fill="rgba(0,0,0,0)" opacity="0" style="--campos-focus-ring:#ffffff;pointer-events:none"></rect><rect x="8.750000000000002" y="25.5" width="8.750000000000002" height="8.5" fill="rgba(0,0,0,0)" opacity="0" style="--campos-focus-ring:#ffffff;pointer-events:none"></rect><rect x="17.500000000000004" y="25.5" width="8.749999999999996" height="8.5" fill="rgba(0,0,0,0)" opacity="0" style="--campos-focus-ring:#ffffff;pointer-events:none"></rect><rect x="26.25" y="25.5" width="8.750000000000007" height="8.5" fill="rgba(0,0,0,0)" opacity="0" style="--campos-focus-ring:#ffffff;pointer-events:none"></rect><rect x="35.00000000000001" y="25.5" width="8.75" height="8.5" fill="rgba(0,0,0,0)" opacity="0" style="--campos-focus-ring:#ffffff;pointer-events:none"></rect><rect x="43.75000000000001" y="25.5" width="8.749999999999993" height="8.5" fill="rgba(0,0,0,0)" opacity="0" style="--campos-focus-ring:#ffffff;pointer-events:none"></rect><rect x="52.5" y="25.5" width="8.750000000000007" height="8.5" fill="rgba(0,0,0,0)" opacity="0" style="--campos-focus-ring:#ffffff;pointer-events:none"></rect><rect x="61.25000000000001" y="25.5" width="8.750000000000007" height="8.5" fill="rgba(0,0,0,0)" opacity="0" style="--campos-focus-ring:#ffffff;pointer-events:none"></rect><rect x="70.00000000000001" y="25.5" width="8.749999999999986" height="8.5" fill="rgba(0,0,0,0)" opacity="0" style="--campos-focus-ring:#ffffff;pointer-events:none"></rect><rect x="78.75" y="25.5" width="8.750000000000014" height="8.5" fill="rgba(0,0,0,0)" opacity="0" style="--campos-focus-ring:#ffffff;pointer-events:none"></rect><rect x="87.50000000000001" y="25.5" width="8.75" height="8.5" fill="rgba(0,0,0,0)" opacity="0" style="--campos-focus-ring:#ffffff;pointer-events:none"></rect><rect x="96.25000000000001" y="25.5" width="8.749999999999986" height="8.5" fill="rgba(0,0,0,0)" opacity="0" style="--campos-focus-ring:#ffffff;pointer-events:none"></rect><rect x="0" y="17" width="8.750000000000002" height="8.5" fill="rgba(0,0,0,0)" opacity="0" style="--campos-focus-ring:#ffffff;pointer-events:none"></rect><rect x="8.750000000000002" y="17" width="8.750000000000002" height="8.5" fill="rgba(0,0,0,0)" opacity="0" style="--campos-focus-ring:#ffffff;pointer-events:none"></rect><rect x="17.500000000000004" y="17" width="8.749999999999996" height="8.5" fill="rgba(0,0,0,0)" opacity="0" style="--campos-focus-ring:#ffffff;pointer-events:none"></rect><rect x="26.25" y="17" width="8.750000000000007" height="8.5" fill="rgba(0,0,0,0)" opacity="0" style="--campos-focus-ring:#ffffff;pointer-events:none"></rect><rect x="35.00000000000001" y="17" width="8.75" height="8.5" fill="rgba(0,0,0,0)" opacity="0" style="--campos-focus-ring:#ffffff;pointer-events:none"></rect><rect x="43.75000000000001" y="17" width="8.749999999999993" height="8.5" fill="rgba(0,0,0,0)" opacity="0" style="--campos-focus-ring:#ffffff;pointer-events:none"></rect><rect x="52.5" y="17" width="8.750000000000007" height="8.5" fill="rgba(0,0,0,0)" opacity="0" style="--campos-focus-ring:#ffffff;pointer-events:none"></rect><rect x="61.25000000000001" y="17" width="8.750000000000007" height="8.5" fill="rgba(0,0,0,0)" opacity="0" style="--campos-focus-ring:#ffffff;pointer-events:none"></rect><rect x="70.00000000000001" y="17" width="8.749999999999986" height="8.5" fill="rgba(0,0,0,0)" opacity="0" style="--campos-focus-ring:#ffffff;pointer-events:none"></rect><rect x="78.75" y="17" width="8.750000000000014" height="8.5" fill="rgba(0,0,0,0)" opacity="0" style="--campos-focus-ring:#ffffff;pointer-events:none"></rect><rect x="87.50000000000001" y="17" width="8.75" height="8.5" fill="rgba(0,0,0,0)" opacity="0" style="--campos-focus-ring:#ffffff;pointer-events:none"></rect><rect x="96.25000000000001" y="17" width="8.749999999999986" height="8.5" fill="rgba(0,0,0,0)" opacity="0" style="--campos-focus-ring:#ffffff;pointer-events:none"></rect><rect x="0" y="8.5" width="8.750000000000002" height="8.5" fill="rgba(0,0,0,0)" opacity="0" style="--campos-focus-ring:#ffffff;pointer-events:none"></rect><rect x="8.750000000000002" y="8.5" width="8.750000000000002" height="8.5" fill="rgba(0,0,0,0)" opacity="0" style="--campos-focus-ring:#ffffff;pointer-events:none"></rect><rect x="17.500000000000004" y="8.5" width="8.749999999999996" height="8.5" fill="rgba(0,0,0,0)" opacity="0" style="--campos-focus-ring:#ffffff;pointer-events:none"></rect><rect x="26.25" y="8.5" width="8.750000000000007" height="8.5" fill="rgba(0,0,0,0)" opacity="0" style="--campos-focus-ring:#ffffff;pointer-events:none"></rect><rect x="35.00000000000001" y="8.5" width="8.75" height="8.5" fill="rgba(0,0,0,0)" opacity="0" style="--campos-focus-ring:#ffffff;pointer-events:none"></rect><rect x="43.75000000000001" y="8.5" width="8.749999999999993" height="8.5" fill="rgba(0,0,0,0)" opacity="0" style="--campos-focus-ring:#ffffff;pointer-events:none"></rect><rect x="52.5" y="8.5" width="8.750000000000007" height="8.5" fill="rgba(0,0,0,0)" opacity="0" style="--campos-focus-ring:#ffffff;pointer-events:none"></rect><rect x="61.25000000000001" y="8.5" width="8.750000000000007" height="8.5" fill="rgba(0,0,0,0)" opacity="0" style="--campos-focus-ring:#ffffff;pointer-events:none"></rect><rect x="70.00000000000001" y="8.5" width="8.749999999999986" height="8.5" fill="rgba(0,0,0,0)" opacity="0" style="--campos-focus-ring:#ffffff;pointer-events:none"></rect><rect x="78.75" y="8.5" width="8.750000000000014" height="8.5" fill="rgba(0,0,0,0)" opacity="0" style="--campos-focus-ring:#ffffff;pointer-events:none"></rect><rect x="87.50000000000001" y="8.5" width="8.75" height="8.5" fill="rgba(0,0,0,0)" opacity="0" style="--campos-focus-ring:#ffffff;pointer-events:none"></rect><rect x="96.25000000000001" y="8.5" width="8.749999999999986" height="8.5" fill="rgba(0,0,0,0)" opacity="0" style="--campos-focus-ring:#ffffff;pointer-events:none"></rect><rect x="0" y="0" width="8.750000000000002" height="8.5" fill="rgba(0,0,0,0)" opacity="0" style="--campos-focus-ring:#ffffff;pointer-events:none"></rect><rect x="8.750000000000002" y="0" width="8.750000000000002" height="8.5" fill="rgba(0,0,0,0)" opacity="0" style="--campos-focus-ring:#ffffff;pointer-events:none"></rect><rect x="17.500000000000004" y="0" width="8.749999999999996" height="8.5" fill="rgba(0,0,0,0)" opacity="0" style="--campos-focus-ring:#ffffff;pointer-events:none"></rect><rect x="26.25" y="0" width="8.750000000000007" height="8.5" fill="rgba(0,0,0,0)" opacity="0" style="--campos-focus-ring:#ffffff;pointer-events:none"></rect><rect x="35.00000000000001" y="0" width="8.75" height="8.5" fill="rgba(0,0,0,0)" opacity="0" style="--campos-focus-ring:#ffffff;pointer-events:none"></rect><rect x="43.75000000000001" y="0" width="8.749999999999993" height="8.5" fill="rgba(0,0,0,0)" opacity="0" style="--campos-focus-ring:#ffffff;pointer-events:none"></rect><rect x="52.5" y="0" width="8.750000000000007" height="8.5" fill="rgba(0,0,0,0)" opacity="0" style="--campos-focus-ring:#ffffff;pointer-events:none"></rect><rect x="61.25000000000001" y="0" width="8.750000000000007" height="8.5" fill="rgba(0,0,0,0)" opacity="0" style="--campos-focus-ring:#ffffff;pointer-events:none"></rect><rect x="70.00000000000001" y="0" width="8.749999999999986" height="8.5" fill="rgba(0,0,0,0)" opacity="0" style="--campos-focus-ring:#ffffff;pointer-events:none"></rect><rect x="78.75" y="0" width="8.750000000000014" height="8.5" fill="rgba(0,0,0,0)" opacity="0" style="--campos-focus-ring:#ffffff;pointer-events:none"></rect><rect x="87.50000000000001" y="0" width="8.75" height="8.5" fill="rgba(0,0,0,0)" opacity="0" style="--campos-focus-ring:#ffffff;pointer-events:none"></rect><rect x="96.25000000000001" y="0" width="8.749999999999986" height="8.5" fill="rgba(0,0,0,0)" opacity="0" style="--campos-focus-ring:#ffffff;pointer-events:none"></rect></g><g data-stadia="pitch-lines"><rect x="0" y="0" width="105" height="68" stroke="#1a1a1a" stroke-width="0.3" fill="none"></rect><rect x="0" y="13.84" width="16.5" height="40.32" stroke="#1a1a1a" stroke-width="0.3" fill="none"></rect><rect x="0" y="24.84" width="5.5" height="18.32" stroke="#1a1a1a" stroke-width="0.3" fill="none"></rect><line x1="0" y1="30.34" x2="0" y2="37.66" stroke="#1a1a1a" stroke-width="0.6"></line><circle cx="11" cy="34" r="0.3" stroke="none" stroke-width="0" fill="#1a1a1a"></circle><path d="M 16.5 26.687510683768487 A 9.15 9.15 0 0 1 16.5 41.31248931623151" stroke="#1a1a1a" stroke-width="0.3" fill="none"></path><rect x="88.5" y="13.84" width="16.5" height="40.32" stroke="#1a1a1a" stroke-width="0.3" fill="none"></rect><rect x="99.5" y="24.84" width="5.5" height="18.32" stroke="#1a1a1a" stroke-width="0.3" fill="none"></rect><line x1="105" y1="30.34" x2="105" y2="37.66" stroke="#1a1a1a" stroke-width="0.6"></line><circle cx="94" cy="34" r="0.3" stroke="none" stroke-width="0" fill="#1a1a1a"></circle><path d="M 88.5 41.312489316231506 A 9.15 9.15 0 0 1 88.5 26.687510683768487" stroke="#1a1a1a" stroke-width="0.3" fill="none"></path><line x1="52.5" y1="0" x2="52.5" y2="68" stroke="#1a1a1a" stroke-width="0.3"></line><circle cx="52.5" cy="34" r="9.15" stroke="#1a1a1a" stroke-width="0.3" fill="none"></circle><circle cx="52.5" cy="34" r="0.3" stroke="none" stroke-width="0" fill="#1a1a1a"></circle><path d="M 1 0 A 1 1 0 0 1 6.123233995736766e-17 1" stroke="#1a1a1a" stroke-width="0.3" fill="none"></path><path d="M 6.123233995736766e-17 67 A 1 1 0 0 1 1 68" stroke="#1a1a1a" stroke-width="0.3" fill="none"></path><path d="M 105 1 A 1 1 0 0 1 104 -1.2246467991473532e-16" stroke="#1a1a1a" stroke-width="0.3" fill="none"></path><path d="M 104 68 A 1 1 0 0 1 105 67" stroke="#1a1a1a" stroke-width="0.3" fill="none"></path></g><text x="52.5" y="34" text-anchor="middle" dominant-baseline="central" fill="#6b7280" font-size="4" font-weight="700">No event data</text></svg></svg></svg></svg>