<?xml version="1.0" encoding="UTF-8"?><svg xmlns="http://www.w3.org/2000/svg" width="1200" height="630" viewBox="0 0 1200 630" role="img" aria-label="Passes"><rect x="0" y="0" width="1200" height="630" fill="#ffffff"></rect><text x="48" y="82" fill="#1a1a1a" font-family="&quot;IBM Plex Sans&quot;, ui-sans-serif, system-ui, sans-serif" font-size="34" font-weight="700">Passes</text><g transform="translate(0 114)"><g><text x="324" y="10" text-anchor="middle" fill="#6b7280" font-family="&quot;IBM Plex Sans&quot;, ui-sans-serif, system-ui, sans-serif" font-size="11" letter-spacing="0.06em">PASSES</text><text x="324" y="28" text-anchor="middle" fill="#1a1a1a" font-family="&quot;IBM Plex Sans&quot;, ui-sans-serif, system-ui, sans-serif" font-size="18" font-weight="700">1</text></g><g><text x="876" y="10" text-anchor="middle" fill="#6b7280" font-family="&quot;IBM Plex Sans&quot;, ui-sans-serif, system-ui, sans-serif" font-size="11" letter-spacing="0.06em">COMPLETION</text><text x="876" y="28" text-anchor="middle" fill="#1a1a1a" font-family="&quot;IBM Plex Sans&quot;, ui-sans-serif, system-ui, sans-serif" font-size="18" font-weight="700">100%</text></g></g><svg x="272.6470588235294" y="158" width="654.7058823529412" height="424"><svg viewBox="0 0 68 105" overflow="hidden" preserveAspectRatio="xMidYMid meet" role="img" aria-label="Pass map: 1 passes, 100% completion" style="width:100%;aspect-ratio:68 / 105;display:block;pointer-events:none"><svg x="0" y="0" width="68" height="105" viewBox="0 0 68 105" overflow="hidden"><g data-stadia="pitch-background"><rect x="0" y="0" width="68" height="105" fill="#1a472a" stroke="none"></rect></g><g data-stadia="pitch-lines"><rect x="0" y="0" width="68" height="105" stroke="#ffffffcc" stroke-width="0.3" fill="none"></rect><rect x="13.84" y="0" width="40.32" height="16.5" stroke="#ffffffcc" stroke-width="0.3" fill="none"></rect><rect x="24.84" y="0" width="18.32" height="5.5" stroke="#ffffffcc" stroke-width="0.3" fill="none"></rect><line x1="30.34" y1="0" x2="37.66" y2="0" stroke="#ffffffcc" stroke-width="0.6"></line><circle cx="34" cy="11" r="0.3" stroke="none" stroke-width="0" fill="#ffffffcc"></circle><path d="M 41.31248931623151 16.5 A 9.15 9.15 0 0 1 26.687510683768487 16.5" stroke="#ffffffcc" stroke-width="0.3" fill="none"></path><rect x="13.84" y="88.5" width="40.32" height="16.5" stroke="#ffffffcc" stroke-width="0.3" fill="none"></rect><rect x="24.84" y="99.5" width="18.32" height="5.5" stroke="#ffffffcc" stroke-width="0.3" fill="none"></rect><line x1="30.34" y1="105" x2="37.66" y2="105" stroke="#ffffffcc" stroke-width="0.6"></line><circle cx="34" cy="94" r="0.3" stroke="none" stroke-width="0" fill="#ffffffcc"></circle><path d="M 26.687510683768487 88.5 A 9.15 9.15 0 0 1 41.312489316231506 88.5" stroke="#ffffffcc" stroke-width="0.3" fill="none"></path><line x1="0" y1="52.5" x2="68" y2="52.5" stroke="#ffffffcc" stroke-width="0.3"></line><circle cx="34" cy="52.5" r="9.15" stroke="#ffffffcc" stroke-width="0.3" fill="none"></circle><circle cx="34" cy="52.5" r="0.3" stroke="none" stroke-width="0" fill="#ffffffcc"></circle><path d="M 1 0 A 1 1 0 0 1 6.123233995736766e-17 1" stroke="#ffffffcc" stroke-width="0.3" fill="none"></path><path d="M 68 1 A 1 1 0 0 1 67 1.2246467991473532e-16" stroke="#ffffffcc" stroke-width="0.3" fill="none"></path><path d="M -1.8369701987210297e-16 104 A 1 1 0 0 1 1 105" stroke="#ffffffcc" stroke-width="0.3" fill="none"></path><path d="M 67 105 A 1 1 0 0 1 68 104" stroke="#ffffffcc" stroke-width="0.3" fill="none"></path></g><defs><marker id="passmap-static-arrow-7ce2a1" markerWidth="4" markerHeight="4" refX="3" refY="2" orient="auto" markerUnits="strokeWidth"><path d="M0,0 L4,2 L0,4 Z" fill="#7ce2a1"></path></marker></defs><g><line x1="35.36" y1="57.75000000000001" x2="44.2" y2="29.400000000000002" stroke="#7ce2a1" stroke-width="0.55" stroke-linecap="round" opacity="0.82" marker-end="url(#passmap-static-arrow-7ce2a1)"></line></g></svg></svg></svg></svg>