<?xml version="1.0" encoding="UTF-8"?><svg xmlns="http://www.w3.org/2000/svg" width="1200" height="630" viewBox="0 0 1200 630" role="img" aria-label="Pass network"><rect x="0" y="0" width="1200" height="630" fill="#ffffff"></rect><text x="48" y="82" fill="#1a1a1a" font-family="&quot;IBM Plex Sans&quot;, ui-sans-serif, system-ui, sans-serif" font-size="34" font-weight="700">Pass network</text><svg x="238.6764705882353" y="114.00000000000003" width="722.6470588235294" height="467.99999999999994"><svg viewBox="-3.15 -3.15 111.30000000000001 74.30000000000001" overflow="hidden" preserveAspectRatio="xMidYMid meet" role="img" aria-label="Passing network: 2 players, 1 connections" style="width:100%;aspect-ratio:105 / 68;display:block;pointer-events:none"><svg x="-3.15" y="-3.15" width="111.30000000000001" height="74.30000000000001" viewBox="-3.15 -3.15 111.30000000000001 74.30000000000001" overflow="hidden"><g data-stadia="pitch-background"><rect x="0" y="0" width="105" height="68" fill="#1a472a" stroke="none"></rect></g><g data-stadia="pitch-lines"><rect x="0" y="0" width="105" height="68" stroke="#ffffffcc" stroke-width="0.3" fill="none"></rect><rect x="0" y="13.84" width="16.5" height="40.32" stroke="#ffffffcc" stroke-width="0.3" fill="none"></rect><rect x="0" y="24.84" width="5.5" height="18.32" stroke="#ffffffcc" stroke-width="0.3" fill="none"></rect><line x1="0" y1="30.34" x2="0" y2="37.66" stroke="#ffffffcc" stroke-width="0.6"></line><circle cx="11" cy="34" r="0.3" stroke="none" stroke-width="0" fill="#ffffffcc"></circle><path d="M 16.5 26.687510683768487 A 9.15 9.15 0 0 1 16.5 41.31248931623151" stroke="#ffffffcc" stroke-width="0.3" fill="none"></path><rect x="88.5" y="13.84" width="16.5" height="40.32" stroke="#ffffffcc" stroke-width="0.3" fill="none"></rect><rect x="99.5" y="24.84" width="5.5" height="18.32" stroke="#ffffffcc" stroke-width="0.3" fill="none"></rect><line x1="105" y1="30.34" x2="105" y2="37.66" stroke="#ffffffcc" stroke-width="0.6"></line><circle cx="94" cy="34" r="0.3" stroke="none" stroke-width="0" fill="#ffffffcc"></circle><path d="M 88.5 41.312489316231506 A 9.15 9.15 0 0 1 88.5 26.687510683768487" stroke="#ffffffcc" stroke-width="0.3" fill="none"></path><line x1="52.5" y1="0" x2="52.5" y2="68" stroke="#ffffffcc" stroke-width="0.3"></line><circle cx="52.5" cy="34" r="9.15" stroke="#ffffffcc" stroke-width="0.3" fill="none"></circle><circle cx="52.5" cy="34" r="0.3" stroke="none" stroke-width="0" fill="#ffffffcc"></circle><path d="M 1 0 A 1 1 0 0 1 6.123233995736766e-17 1" stroke="#ffffffcc" stroke-width="0.3" fill="none"></path><path d="M 6.123233995736766e-17 67 A 1 1 0 0 1 1 68" stroke="#ffffffcc" stroke-width="0.3" fill="none"></path><path d="M 105 1 A 1 1 0 0 1 104 -1.2246467991473532e-16" stroke="#ffffffcc" stroke-width="0.3" fill="none"></path><path d="M 104 68 A 1 1 0 0 1 105 67" stroke="#ffffffcc" stroke-width="0.3" fill="none"></path></g><line x1="27.709360915317845" y1="36.786277481527655" x2="12.276862070944759" y2="34.28768243053391" stroke="#f05252" stroke-width="0.884" stroke-linecap="round" opacity="0.675"></line><g><circle cx="10.5" cy="34" r="1.8360000000000003" fill="#0f172a" opacity="0.3"></circle><circle cx="10.5" cy="34" r="1.7000000000000002" fill="#f05252" stroke="#1a202c" stroke-width="0.15" opacity="0.95"></circle><text x="10.5" y="34" fill="#ffffff" font-size="1.224" font-weight="700" text-anchor="middle" dominant-baseline="central" stroke="#1a202c" stroke-width="0.15" paint-order="stroke" pointer-events="none">Raya</text></g><g><circle cx="31.5" cy="37.400000000000006" r="4.0392" fill="#0f172a" opacity="0.3"></circle><circle cx="31.5" cy="37.400000000000006" r="3.74" fill="#f05252" stroke="#1a202c" stroke-width="0.22440000000000002" opacity="0.95"></circle><text x="31.5" y="37.400000000000006" fill="#ffffff" font-size="2.6928" font-weight="700" text-anchor="middle" dominant-baseline="central" stroke="#1a202c" stroke-width="0.215424" paint-order="stroke" pointer-events="none">Saliba</text></g></svg></svg></svg></svg>