<?xml version="1.0" encoding="UTF-8"?><svg xmlns="http://www.w3.org/2000/svg" width="1200" height="630" viewBox="0 0 1200 630" role="img" aria-label="Pass sonar"><rect x="0" y="0" width="1200" height="630" fill="#ffffff"></rect><text x="48" y="82" fill="#1a1a1a" font-family="&quot;IBM Plex Sans&quot;, ui-sans-serif, system-ui, sans-serif" font-size="34" font-weight="700">Pass sonar</text><svg x="386" y="114" width="428" height="428"><svg viewBox="0 0 320 320" width="100%" height="100%" role="img" aria-label="Pass sonar for Rice" style="display:block;overflow:visible"><g pointer-events="none"><circle cx="160" cy="160" r="132" fill="none" stroke="#e5e7eb" stroke-width="0.5"></circle><circle cx="160" cy="160" r="36" fill="#ffffff" stroke="#e5e7eb" stroke-width="0.5"></circle></g><g data-testid="pass-sonar-wedges"><g></g><g></g><g></g><g></g><g><path d="M 55.28 79.64 A 132 132 0 0 1 38.05 109.49 L 126.74 146.22 A 36 36 0 0 0 131.44 138.08 Z" fill="#3b82f6" fill-opacity="0.35" stroke="#ffffff" stroke-width="0.5"></path></g><g></g><g></g><g></g><g></g><g></g><g></g><g></g><g></g><g></g><g></g><g></g><g></g><g></g><g></g><g></g><g></g><g></g><g><path d="M 240.36 55.28 A 132 132 0 0 1 210.51 38.05 L 173.78 126.74 A 36 36 0 0 0 181.92 131.44 Z" fill="#3b82f6" fill-opacity="0.35" stroke="#ffffff" stroke-width="0.5"></path><path d="M 240.36 55.28 A 132 132 0 0 1 210.51 38.05 L 173.78 126.74 A 36 36 0 0 0 181.92 131.44 Z" fill="#22c55e" fill-opacity="0.85" stroke="#ffffff" stroke-width="0.5"></path></g><g></g></g><g data-testid="pass-sonar-direction-labels" pointer-events="none" aria-hidden="true"><text x="160" y="14" text-anchor="middle" dominant-baseline="central" fill="#9ca3af" font-size="11">forward</text><text x="56.76" y="56.76" text-anchor="middle" dominant-baseline="central" fill="#9ca3af" font-size="11">forward-left</text><text x="14" y="160" text-anchor="middle" dominant-baseline="central" fill="#9ca3af" font-size="11">left</text><text x="56.76" y="263.24" text-anchor="middle" dominant-baseline="central" fill="#9ca3af" font-size="11">back-left</text><text x="160" y="306" text-anchor="middle" dominant-baseline="central" fill="#9ca3af" font-size="11">back</text><text x="263.24" y="263.24" text-anchor="middle" dominant-baseline="central" fill="#9ca3af" font-size="11">back-right</text><text x="306" y="160" text-anchor="middle" dominant-baseline="central" fill="#9ca3af" font-size="11">right</text><text x="263.24" y="56.76" text-anchor="middle" dominant-baseline="central" fill="#9ca3af" font-size="11">forward-right</text></g><g data-testid="pass-sonar-summary" pointer-events="none" text-anchor="middle"><text x="160" y="152" fill="#1a1a1a" font-size="12" font-weight="600">Rice</text><text x="160" y="170" fill="#9ca3af" font-size="11">1 / 2  (50%)</text></g></svg></svg><g transform="translate(0 554)"><g transform="translate(455 0)"><rect x="0" y="0" width="10" height="10" rx="2" fill="#3b82f6"></rect><text x="16" y="9" fill="#6b7280" font-family="&quot;IBM Plex Sans&quot;, ui-sans-serif, system-ui, sans-serif" font-size="12">Attempted passes</text></g><g transform="translate(609 0)"><rect x="0" y="0" width="10" height="10" rx="2" fill="#22c55e"></rect><text x="16" y="9" fill="#6b7280" font-family="&quot;IBM Plex Sans&quot;, ui-sans-serif, system-ui, sans-serif" font-size="12">Completed passes</text></g></g></svg>