<?xml version="1.0" encoding="UTF-8"?><svg xmlns="http://www.w3.org/2000/svg" width="1200" height="630" viewBox="0 0 1200 630" role="img" aria-label="Pass flow"><rect x="0" y="0" width="1200" height="630" fill="#ffffff"></rect><text x="48" y="82" fill="#1a1a1a" font-family="&quot;IBM Plex Sans&quot;, ui-sans-serif, system-ui, sans-serif" font-size="34" font-weight="700">Pass flow</text><svg x="260.2941176470588" y="113.99999999999997" width="679.4117647058824" height="440.00000000000006"><svg viewBox="0 0 105 68" overflow="hidden" preserveAspectRatio="xMidYMid meet" role="img" aria-label="Pass flow: 1 passes across 6×4 zones" style="width:100%;aspect-ratio:105 / 68;display:block;pointer-events:none"><svg x="0" y="0" width="105" height="68" viewBox="0 0 105 68" overflow="hidden"><g data-stadia="pitch-background"><rect x="0" y="0" width="105" height="68" fill="#1a472a" stroke="none"></rect></g><g data-campos="heatmap-cells"><style>
    [data-campos="heatmap-cells"] > rect:focus { outline: none; }
    [data-campos="heatmap-cells"] > rect:focus-visible {
      outline: 2px solid var(--campos-focus-ring, #0f172a);
      outline-offset: -1px;
      border-radius: 2px;
    }
  </style><rect x="35.00000000000001" y="34" width="17.499999999999993" height="17" fill="#fbffa4" opacity="1" style="--campos-focus-ring:#0f172a;pointer-events:none"></rect></g><g data-stadia="pitch-lines"><rect x="0" y="0" width="105" height="68" stroke="#ffffffcc" stroke-width="0.3" fill="none"></rect><rect x="0" y="13.84" width="16.5" height="40.32" stroke="#ffffffcc" stroke-width="0.3" fill="none"></rect><rect x="0" y="24.84" width="5.5" height="18.32" stroke="#ffffffcc" stroke-width="0.3" fill="none"></rect><line x1="0" y1="30.34" x2="0" y2="37.66" stroke="#ffffffcc" stroke-width="0.6"></line><circle cx="11" cy="34" r="0.3" stroke="none" stroke-width="0" fill="#ffffffcc"></circle><path d="M 16.5 26.687510683768487 A 9.15 9.15 0 0 1 16.5 41.31248931623151" stroke="#ffffffcc" stroke-width="0.3" fill="none"></path><rect x="88.5" y="13.84" width="16.5" height="40.32" stroke="#ffffffcc" stroke-width="0.3" fill="none"></rect><rect x="99.5" y="24.84" width="5.5" height="18.32" stroke="#ffffffcc" stroke-width="0.3" fill="none"></rect><line x1="105" y1="30.34" x2="105" y2="37.66" stroke="#ffffffcc" stroke-width="0.6"></line><circle cx="94" cy="34" r="0.3" stroke="none" stroke-width="0" fill="#ffffffcc"></circle><path d="M 88.5 41.312489316231506 A 9.15 9.15 0 0 1 88.5 26.687510683768487" stroke="#ffffffcc" stroke-width="0.3" fill="none"></path><line x1="52.5" y1="0" x2="52.5" y2="68" stroke="#ffffffcc" stroke-width="0.3"></line><circle cx="52.5" cy="34" r="9.15" stroke="#ffffffcc" stroke-width="0.3" fill="none"></circle><circle cx="52.5" cy="34" r="0.3" stroke="none" stroke-width="0" fill="#ffffffcc"></circle><path d="M 1 0 A 1 1 0 0 1 6.123233995736766e-17 1" stroke="#ffffffcc" stroke-width="0.3" fill="none"></path><path d="M 6.123233995736766e-17 67 A 1 1 0 0 1 1 68" stroke="#ffffffcc" stroke-width="0.3" fill="none"></path><path d="M 105 1 A 1 1 0 0 1 104 -1.2246467991473532e-16" stroke="#ffffffcc" stroke-width="0.3" fill="none"></path><path d="M 104 68 A 1 1 0 0 1 105 67" stroke="#ffffffcc" stroke-width="0.3" fill="none"></path></g><g data-campos="passflow-arrows" style="pointer-events:none"><defs><marker id="passflow-static-arrow-R5-1a1a1a" markerWidth="3" markerHeight="3" refX="2" refY="1.5" orient="auto" markerUnits="strokeWidth"><path d="M0,0 L3,1.5 L0,3 Z" fill="#1a1a1a"></path></marker></defs><g></g><g></g><g></g><g></g><g></g><g></g><g></g><g></g><g><line x1="37.443" y1="40.5334" x2="50.057" y2="44.4666" stroke="#1a1a1a" stroke-width="0.41666666666666663" stroke-linecap="round" marker-end="url(#passflow-static-arrow-R5-1a1a1a)" data-bin-col="2" data-bin-row="1" data-active="0" opacity="1"></line></g><g></g><g></g><g></g><g></g><g></g><g></g><g></g><g></g><g></g><g></g><g></g><g></g><g></g><g></g><g></g></g></svg></svg></svg><g transform="translate(0 554)"><g transform="translate(542.5 0)"><rect x="0" y="0" width="10" height="10" rx="2" fill="#140e36"></rect><text x="16" y="9" fill="#6b7280" font-family="&quot;IBM Plex Sans&quot;, ui-sans-serif, system-ui, sans-serif" font-size="12">Low</text></g><g transform="translate(605.5 0)"><rect x="0" y="0" width="10" height="10" rx="2" fill="#fbffa4"></rect><text x="16" y="9" fill="#6b7280" font-family="&quot;IBM Plex Sans&quot;, ui-sans-serif, system-ui, sans-serif" font-size="12">High</text></g></g></svg>