<?xml version="1.0" encoding="UTF-8"?><svg xmlns="http://www.w3.org/2000/svg" width="1200" height="630" viewBox="0 0 1200 630" role="img" aria-label="Shots"><rect x="0" y="0" width="1200" height="630" fill="#ffffff"></rect><text x="48" y="82" fill="#1a1a1a" font-family="&quot;IBM Plex Sans&quot;, ui-sans-serif, system-ui, sans-serif" font-size="34" font-weight="700">Shots</text><svg x="360.3809523809524" y="114" width="479.23809523809524" height="370"><svg viewBox="0 0 68 52.5" overflow="hidden" preserveAspectRatio="xMidYMid meet" role="img" aria-label="Shot map: 2 shots, 1 goals" style="width:100%;aspect-ratio:68 / 52.5;display:block;pointer-events:none;overflow:visible"><svg x="0" y="0" width="68" height="52.5" viewBox="0 0 68 52.5" overflow="hidden"><g data-stadia="pitch-background"><rect x="0" y="0" width="68" height="105" fill="#1a472a" stroke="none"></rect></g><g data-stadia="pitch-lines"><rect x="0" y="0" width="68" height="105" stroke="#ffffffcc" stroke-width="0.3" fill="none"></rect><rect x="13.84" y="0" width="40.32" height="16.5" stroke="#ffffffcc" stroke-width="0.3" fill="none"></rect><rect x="24.84" y="0" width="18.32" height="5.5" stroke="#ffffffcc" stroke-width="0.3" fill="none"></rect><line x1="30.34" y1="0" x2="37.66" y2="0" stroke="#ffffffcc" stroke-width="0.6"></line><circle cx="34" cy="11" r="0.3" stroke="none" stroke-width="0" fill="#ffffffcc"></circle><path d="M 41.31248931623151 16.5 A 9.15 9.15 0 0 1 26.687510683768487 16.5" stroke="#ffffffcc" stroke-width="0.3" fill="none"></path><line x1="0" y1="52.5" x2="68" y2="52.5" stroke="#ffffffcc" stroke-width="0.3"></line><circle cx="34" cy="52.5" r="0.3" stroke="none" stroke-width="0" fill="#ffffffcc"></circle><path d="M 24.85 52.5 A 9.15 9.15 0 0 1 43.15 52.5" stroke="#ffffffcc" stroke-width="0.3" fill="none"></path><path d="M 1 0 A 1 1 0 0 1 6.123233995736766e-17 1" stroke="#ffffffcc" stroke-width="0.3" fill="none"></path><path d="M 68 1 A 1 1 0 0 1 67 1.2246467991473532e-16" stroke="#ffffffcc" stroke-width="0.3" fill="none"></path></g><g><circle cx="29.24" cy="16.8" r="0.98" fill="transparent" fill-opacity="0" stroke="rgba(0,0,0,0.35)" stroke-width="0.25" opacity="1"></circle></g><g><circle cx="39.44" cy="9.45" r="1.1796609682446904" fill="#e04162" fill-opacity="1" stroke="#e04162" stroke-width="0.4" opacity="1"></circle></g></svg></svg></svg><g transform="translate(0 496)"><text x="600" y="10" text-anchor="middle" fill="#6b7280" font-family="&quot;IBM Plex Sans&quot;, ui-sans-serif, system-ui, sans-serif" font-size="11" letter-spacing="0.06em">XG</text><g><circle cx="158.4" cy="26" r="3" fill="none" stroke="#1a1a1a" stroke-width="1.5"></circle><text x="158.4" y="43" text-anchor="middle" fill="#6b7280" font-family="&quot;IBM Plex Sans&quot;, ui-sans-serif, system-ui, sans-serif" font-size="11">0.05</text></g><g><circle cx="379.20000000000005" cy="26" r="3.1148033645801787" fill="none" stroke="#1a1a1a" stroke-width="1.5"></circle><text x="379.20000000000005" y="43" text-anchor="middle" fill="#6b7280" font-family="&quot;IBM Plex Sans&quot;, ui-sans-serif, system-ui, sans-serif" font-size="11">0.15</text></g><g><circle cx="600" cy="26" r="3.872208672063013" fill="none" stroke="#1a1a1a" stroke-width="1.5"></circle><text x="600" y="43" text-anchor="middle" fill="#6b7280" font-family="&quot;IBM Plex Sans&quot;, ui-sans-serif, system-ui, sans-serif" font-size="11">0.30</text></g><g><circle cx="820.8000000000001" cy="26" r="4.695742752749558" fill="none" stroke="#1a1a1a" stroke-width="1.5"></circle><text x="820.8000000000001" y="43" text-anchor="middle" fill="#6b7280" font-family="&quot;IBM Plex Sans&quot;, ui-sans-serif, system-ui, sans-serif" font-size="11">0.50</text></g><g><circle cx="1041.6000000000001" cy="26" r="5.712617613668886" fill="none" stroke="#1a1a1a" stroke-width="1.5"></circle><text x="1041.6000000000001" y="43" text-anchor="middle" fill="#6b7280" font-family="&quot;IBM Plex Sans&quot;, ui-sans-serif, system-ui, sans-serif" font-size="11">0.80</text></g></g><g transform="translate(0 554)"><g transform="translate(539 0)"><rect x="0" y="0" width="10" height="10" rx="2" fill="#e04162"></rect><text x="16" y="9" fill="#6b7280" font-family="&quot;IBM Plex Sans&quot;, ui-sans-serif, system-ui, sans-serif" font-size="12">Goal</text></g><g transform="translate(609 0)"><rect x="0" y="0" width="10" height="10" rx="2" fill="#64748b"></rect><text x="16" y="9" fill="#6b7280" font-family="&quot;IBM Plex Sans&quot;, ui-sans-serif, system-ui, sans-serif" font-size="12">Shot</text></g></g></svg>