<?xml version="1.0" encoding="UTF-8"?><svg xmlns="http://www.w3.org/2000/svg" width="1200" height="630" viewBox="0 0 1200 630" role="img" aria-label="Territory"><rect x="0" y="0" width="1200" height="630" fill="#ffffff"></rect><text x="48" y="82" fill="#1a1a1a" font-family="&quot;IBM Plex Sans&quot;, ui-sans-serif, system-ui, sans-serif" font-size="34" font-weight="700">Territory</text><svg x="448.45714285714286" y="114" width="303.0857142857143" height="468"><svg viewBox="0 0 68 105" overflow="hidden" preserveAspectRatio="xMidYMid meet" role="img" aria-label="Territory: 9 zones, 3 events" style="width:100%;aspect-ratio:68 / 105;display:block;pointer-events:none"><svg x="0" y="0" width="68" height="105" viewBox="0 0 68 105" overflow="hidden"><g data-stadia="pitch-background"><rect x="0" y="0" width="68" height="105" fill="#1a472a" stroke="none"></rect></g><g data-campos="territory-cells"><g data-testid="territory-cell"><rect x="45.33333333333332" y="69.99999999999999" width="22.66666666666668" height="35.000000000000014" fill="#791d68" opacity="1"></rect><text data-testid="territory-cell-label" x="51.67999999999999" y="77.69999999999999" text-anchor="middle" dominant-baseline="middle" font-size="3.4000000000000017" font-weight="700" fill="#ffffff" style="pointer-events:none">33%</text></g><g data-testid="territory-cell"><rect x="45.33333333333332" y="34.99999999999999" width="22.66666666666668" height="34.99999999999999" fill="rgba(0,0,0,0)" opacity="0"></rect></g><g data-testid="territory-cell"><rect x="45.33333333333332" y="0" width="22.66666666666668" height="34.99999999999999" fill="rgba(0,0,0,0)" opacity="0"></rect></g><g data-testid="territory-cell"><rect x="22.66666666666666" y="69.99999999999999" width="22.66666666666666" height="35.000000000000014" fill="rgba(0,0,0,0)" opacity="0"></rect></g><g data-testid="territory-cell"><rect x="22.66666666666666" y="34.99999999999999" width="22.66666666666666" height="34.99999999999999" fill="#791d68" opacity="1"></rect><text data-testid="territory-cell-label" x="29.01333333333333" y="42.69999999999999" text-anchor="middle" dominant-baseline="middle" font-size="3.399999999999999" font-weight="700" fill="#ffffff" style="pointer-events:none">33%</text></g><g data-testid="territory-cell"><rect x="22.66666666666666" y="0" width="22.66666666666666" height="34.99999999999999" fill="#791d68" opacity="1"></rect><text data-testid="territory-cell-label" x="29.01333333333333" y="7.699999999999998" text-anchor="middle" dominant-baseline="middle" font-size="3.399999999999999" font-weight="700" fill="#ffffff" style="pointer-events:none">33%</text></g><g data-testid="territory-cell"><rect x="0" y="69.99999999999999" width="22.66666666666666" height="35.000000000000014" fill="rgba(0,0,0,0)" opacity="0"></rect></g><g data-testid="territory-cell"><rect x="0" y="34.99999999999999" width="22.66666666666666" height="34.99999999999999" fill="rgba(0,0,0,0)" opacity="0"></rect></g><g data-testid="territory-cell"><rect x="0" y="0" width="22.66666666666666" height="34.99999999999999" fill="rgba(0,0,0,0)" opacity="0"></rect></g></g><g data-stadia="pitch-lines"><rect x="0" y="0" width="68" height="105" stroke="#ffffffcc" stroke-width="0.3" fill="none"></rect><rect x="13.84" y="0" width="40.32" height="16.5" stroke="#ffffffcc" stroke-width="0.3" fill="none"></rect><rect x="24.84" y="0" width="18.32" height="5.5" stroke="#ffffffcc" stroke-width="0.3" fill="none"></rect><line x1="30.34" y1="0" x2="37.66" y2="0" stroke="#ffffffcc" stroke-width="0.6"></line><circle cx="34" cy="11" r="0.3" stroke="none" stroke-width="0" fill="#ffffffcc"></circle><path d="M 41.31248931623151 16.5 A 9.15 9.15 0 0 1 26.687510683768487 16.5" stroke="#ffffffcc" stroke-width="0.3" fill="none"></path><rect x="13.84" y="88.5" width="40.32" height="16.5" stroke="#ffffffcc" stroke-width="0.3" fill="none"></rect><rect x="24.84" y="99.5" width="18.32" height="5.5" stroke="#ffffffcc" stroke-width="0.3" fill="none"></rect><line x1="30.34" y1="105" x2="37.66" y2="105" stroke="#ffffffcc" stroke-width="0.6"></line><circle cx="34" cy="94" r="0.3" stroke="none" stroke-width="0" fill="#ffffffcc"></circle><path d="M 26.687510683768487 88.5 A 9.15 9.15 0 0 1 41.312489316231506 88.5" stroke="#ffffffcc" stroke-width="0.3" fill="none"></path><line x1="0" y1="52.5" x2="68" y2="52.5" stroke="#ffffffcc" stroke-width="0.3"></line><circle cx="34" cy="52.5" r="9.15" stroke="#ffffffcc" stroke-width="0.3" fill="none"></circle><circle cx="34" cy="52.5" r="0.3" stroke="none" stroke-width="0" fill="#ffffffcc"></circle><path d="M 1 0 A 1 1 0 0 1 6.123233995736766e-17 1" stroke="#ffffffcc" stroke-width="0.3" fill="none"></path><path d="M 68 1 A 1 1 0 0 1 67 1.2246467991473532e-16" stroke="#ffffffcc" stroke-width="0.3" fill="none"></path><path d="M -1.8369701987210297e-16 104 A 1 1 0 0 1 1 105" stroke="#ffffffcc" stroke-width="0.3" fill="none"></path><path d="M 67 105 A 1 1 0 0 1 68 104" stroke="#ffffffcc" stroke-width="0.3" fill="none"></path></g></svg></svg></svg></svg>