<svg id="icons" height="512" viewBox="0 0 60 60" width="512" xmlns="http://www.w3.org/2000/svg"><path d="m54.312 26.314a2.189 2.189 0 0 0 3.084.27l1.821-1.53a2.189 2.189 0 0 0 .269-3.086l-2.492-2.968a4.587 4.587 0 0 0 .644-4.539 31.246 31.246 0 0 0 -5.2-8.277 17.28 17.28 0 0 0 -9.728-6.141 2.169 2.169 0 0 0 -2.472 2.848c.75 2.13 1.122 5.106-1.365 7.192-4.731 3.97-11.455 4-15.043 3.661a5.009 5.009 0 0 0 -5.213 3.287 106.83 106.83 0 0 1 -17.339 31.393 5.779 5.779 0 0 0 2.908 9.176 12.9 12.9 0 0 0 9.008-.692l1.943 2.313a2.179 2.179 0 0 0 1.487.771c.065.005.129.008.194.008a2.168 2.168 0 0 0 1.4-.512l1.822-1.53a2.192 2.192 0 0 0 .268-3.086l-1.649-1.972 3.024-2.538 1.653 1.968a2.2 2.2 0 0 0 3.086.268l1.82-1.531a2.188 2.188 0 0 0 .27-3.086l-1.821-2.166a50.555 50.555 0 0 1 8.816-10.161 41.9 41.9 0 0 1 8.039-5.508l2.566 3.054a2.183 2.183 0 0 0 1.488.773c.064.005.129.008.193.008a2.168 2.168 0 0 0 1.4-.513l1.827-1.528a2.2 2.2 0 0 0 .267-3.086l-2.415-2.874 3.022-2.542zm3.643-3.059a.186.186 0 0 1 .044.139.183.183 0 0 1 -.067.127l-1.822 1.531a.189.189 0 0 1 -.267-.024l-2.419-2.877 2.111-1.776zm-45.936 12.991a8.348 8.348 0 0 1 3.581 1.254 1 1 0 1 0 1.043-1.707 10.693 10.693 0 0 0 -3.563-1.414c.525-.953 1.045-1.94 1.562-2.948a8.61 8.61 0 0 1 3.07 1.185 1 1 0 0 0 1.046-1.705 10.841 10.841 0 0 0 -3.189-1.333q.713-1.457 1.4-2.988a8.583 8.583 0 0 1 2.856 1.143 1 1 0 1 0 1.046-1.7 10.769 10.769 0 0 0 -3.082-1.3q.633-1.482 1.236-3.028a8.828 8.828 0 0 1 2.915 1.145 1 1 0 1 0 1.039-1.709 10.908 10.908 0 0 0 -3.235-1.341c.258-.7.515-1.4.761-2.115a2.991 2.991 0 0 1 2.848-1.966c.1 0 .194 0 .292.013a30.531 30.531 0 0 0 6.536-.082 60.693 60.693 0 0 1 -12.126 25.811 1.409 1.409 0 0 1 -1.8.218 18.218 18.218 0 0 0 -6.155-2.244c.64-1.023 1.28-2.083 1.919-3.189zm6.762 19.913a.216.216 0 0 1 -.023.268l-1.822 1.53a.218.218 0 0 1 -.268-.023l-1.707-2.034a12.682 12.682 0 0 0 1.115-.83l1.051-.882zm8.2-6.887a.187.187 0 0 1 .044.139.185.185 0 0 1 -.067.128l-1.821 1.53a.189.189 0 0 1 -.269-.022l-1.653-1.967 2.113-1.774zm22.775-19.131a.191.191 0 0 1 -.024.268l-1.822 1.53a.213.213 0 0 1 -.266-.023l-2.414-2.872 2.112-1.776zm-6.456-2.083a39.775 39.775 0 0 0 -9.075 6.069 52.206 52.206 0 0 0 -9.534 11.1l-9.9 8.309a10.9 10.9 0 0 1 -10.05 2.143 3.779 3.779 0 0 1 -1.9-6c1.841-2.284 3.933-5.1 6.088-8.4a16.515 16.515 0 0 1 6.3 2.118 3.528 3.528 0 0 0 1.813.5 3.348 3.348 0 0 0 2.508-1.109 62.849 62.849 0 0 0 12.733-27.488 18.007 18.007 0 0 0 7.875-3.679c2.626-2.2 3.324-5.537 1.969-9.385a.163.163 0 0 1 .031-.173.161.161 0 0 1 .155-.063 15.3 15.3 0 0 1 8.6 5.47 29.115 29.115 0 0 1 4.871 7.735 2.6 2.6 0 0 1 -.747 2.975z"/></svg>