<svg id="icons" height="512" viewBox="0 0 60 60" width="512" xmlns="http://www.w3.org/2000/svg"><path d="m57.955 23.255-2.42-2.88-2.111 1.776 2.419 2.877a.189.189 0 0 0 .267.024l1.822-1.531a.183.183 0 0 0 .068-.127.186.186 0 0 0 -.045-.139z"/><path d="m18.055 41.461a60.693 60.693 0 0 0 12.126-25.807 30.531 30.531 0 0 1 -6.536.082c-.1-.009-.2-.013-.292-.013a2.991 2.991 0 0 0 -2.848 1.966c-.246.716-.5 1.416-.761 2.115a10.908 10.908 0 0 1 3.235 1.337 1 1 0 0 1 -1.039 1.709 8.828 8.828 0 0 0 -2.917-1.158q-.6 1.544-1.236 3.028a10.769 10.769 0 0 1 3.082 1.3 1 1 0 1 1 -1.046 1.7 8.583 8.583 0 0 0 -2.856-1.143q-.688 1.529-1.4 2.988a10.841 10.841 0 0 1 3.189 1.333 1 1 0 1 1 -1.046 1.705 8.61 8.61 0 0 0 -3.07-1.185c-.517 1.008-1.037 1.995-1.562 2.948a10.693 10.693 0 0 1 3.563 1.414 1 1 0 1 1 -1.041 1.72 8.348 8.348 0 0 0 -3.579-1.25c-.639 1.106-1.279 2.166-1.918 3.189a18.218 18.218 0 0 1 6.154 2.244 1.409 1.409 0 0 0 1.798-.222z"/><path d="m16.936 57.957 1.822-1.53a.216.216 0 0 0 .023-.268l-1.654-1.969-1.051.882a12.682 12.682 0 0 1 -1.115.83l1.707 2.032a.218.218 0 0 0 .268.023z"/><path d="m4.741 55.679a10.9 10.9 0 0 0 10.048-2.138l9.9-8.309a52.206 52.206 0 0 1 9.534-11.1 39.775 39.775 0 0 1 9.077-6.074l11.735-9.872a2.6 2.6 0 0 0 .747-2.975 29.115 29.115 0 0 0 -4.871-7.735 15.3 15.3 0 0 0 -8.598-5.476.161.161 0 0 0 -.155.055.163.163 0 0 0 -.031.173c1.355 3.848.657 7.183-1.969 9.385a18.007 18.007 0 0 1 -7.875 3.687 62.849 62.849 0 0 1 -12.734 27.5 3.348 3.348 0 0 1 -2.508 1.1 3.528 3.528 0 0 1 -1.813-.5 16.515 16.515 0 0 0 -6.3-2.118c-2.155 3.3-4.247 6.116-6.088 8.4a3.779 3.779 0 0 0 1.9 6z"/><path d="m47.91 31.939 1.822-1.53a.191.191 0 0 0 .024-.268l-2.414-2.873-2.112 1.776 2.414 2.872a.213.213 0 0 0 .266.023z"/><path d="m25.136 51.069 1.821-1.53a.185.185 0 0 0 .067-.128.187.187 0 0 0 -.044-.139l-1.652-1.966-2.113 1.774 1.652 1.967a.189.189 0 0 0 .269.022z"/></svg>