<svg xmlns="http://www.w3.org/2000/svg" width="250" height="167" fill="none" viewBox="0 0 250 167">
<!-- SVG created with Arrow, by QuiverAI (https://quiver.ai) -->
  <path d="m249.9 0h-249.8v167h249.8v-167z" fill="#F7F7FE"/>
  <path d="m249.9 0h-249.8v1.87l5.03 9.51-5.03 14.64v141h249.8v-39.26l-7.21-14.83 7.21-12.7v-31.13l-3.95-2.62 0.57-5.4-2.63-2.25-5.45-1.11-4.42-1.39-3.96-1.1-4.43-0.55-3.2 0.55-2.21 0.55-2.69-0.55-3.91 0.55-2.69-0.55-3.8 2.24-1.66 2.71-10.31 1.1-10.88-1.1-6.56 0.55-7.68 0.55-7.68 1.65-3.91 0.55-3.22 1.1-7.11-1.1-5.45-1.65-4.91-1.65-3.22-1.65-4.43-0.3-3.9-0.25-2.69-0.55-3.23-0.3-3.22-0.55-3.34-1.1-1.6-3.95-1.1-1.65 4.42-13.69 1.1-18.63-2.68-3.91-7.68-5.45-6.01-1.65-3.34 0.3-4.42 0.25-4.95 2.2-4.91 5.45-4.43 10.04 0.55 13.15-1.65 9.49-4.42 2.7-3.9 7.15-1.65 2.25-11.44 2.25-5.46 4.35-6.01 10.04-9.82 14.89-10.88 16.54-10.88 21.92 4.91 6.6-2.21 14.24 3.29 7.2 1.6 6 0.55 3.46h229.1l0.07-167z" fill="#F7F7FE"/>
  <path d="m249.9 0h-249.8v1.87l6.01 11.16-6.01 12.99v141h249.8v-39.26l-7.21-14.83 7.21-12.7v-31.13l-4.42-1.65 1.59-3.92-1.59-4.45-4.42-1.65-4.91-0.3-4.95-2.2-6.01-0.55-4.43 0.3-3.23 1.1h-3.91l-3.24-0.55-3.91 2.75-1.1 2.2-10.35 1.1-10.74-1.1-6.56-0.05-7.68 0.6-7.68 1.65-3.91 1.1-3.22 1.1-7.11-1.1-5.45-1.65-4.91-2.25-3.22-1.05-4.43-0.3-3.9-0.25-3.34-0.85-2.73-0.55-3.24-0.55-3.33-0.55-1.1-3.95-1.1-2.25 3.9-13.09 1.1-18.63-2.69-4.46-7.18-4.9-6.01-1.65-3.29 0.05-5.08 0.5-6.01 3.3-4.42 6.01-3.29 9.48 0.55 12.6-1.65 8.94-4.91 1.1-4.91 8.9-1.69 2.1-10.35 2.3-6.01 4.35-5.45 8.89-20.7 31.98-10.88 21.32 5.45 7.75-2.78 13.69 4.42 7.75 1.05 5.95 0.1 3.51h229.2l0.07-167z" fill="#F7F7FE"/>
  <path d="m249.9 160.5h-249.9v6.5h249.9v-6.5z" fill="#182882"/>
  <path d="m183.3 161-8.28 3.89-4.42-4.44h12.7v0.55z" fill="#B34441"/>
  <path d="m249.9 157.5-6.61-2.8-6.01 4.96-4.91-0.55-1.7 1.65 19.23-0.55v-2.71z" fill="#B34441"/>
  <path d="m249.9 150.8-14.25 2.75 1.69 6.01 8.79-1.05 3.77-1.06v-6.65z" fill="#6798B2"/>
  <path d="m249.9 144.3-12.16 3.3v8.25l7.69-0.55 4.47-1.1v-9.9z" fill="#A1B9D1"/>
  <path d="m249.9 131.6-14.8 4.4 2.79 12.09 12.01-3.35v-13.14z" fill="#D3DFEA"/>
  <path d="m249.9 124.4-12.66-2.2-6.61 8.9 4.42 10.59 5.45-0.55 9.4-7.24v-9.5z" fill="#FF7344"/>
  <path d="m249.9 118.4-12.66-8.95-2.73 4.95 7.11 7.2 8.28-0.55v-2.65z" fill="#501616"/>
  <path d="m249.9 92.53-9.35 2.76-1.1 12.64 6.61 6 3.84-3.85v-17.55z" fill="#B34441"/>
  <path d="m249.9 76.05-15.93 3.9 2.16 6.55 13.77 0.55v-11z" fill="#6798B2"/>
  <path d="m249.9 66.01-10.35 2.2-5.45 5.44 3.28 4.4 12.52-3.9v-8.14z" fill="#A1B9D1"/>
  <path d="m249.9 27.22-10.35 2.25-3.33 8.9 2.22 5.44-3.29 6 4.4 2.75 4.91 0.55 5.44-1.65v-24.24z" fill="#B34441"/>
  <path d="m249.9 11.33-10.35-2.2-5.45 7.25 5.45 6.55 7.68-1.1 2.67-3.3v-7.2z" fill="#6798B2"/>
  <path d="m246.6 1.27-10.35-1.27-10.35 9.49 2.21 4.44 5.45-6 3.24 4.95 9.8-11.61z" fill="#A1B9D1"/>
  <path d="m231.9 0-15.93 1.1 6.61 9.49 6.02-3.31 3.3-7.28z" fill="#D3DFEA"/>
  <path d="m216.5 0h-13.75l2.73 11.13 8.28-4.95 2.74-6.18z" fill="#438BA6"/>
  <path d="m201.1 0h-7.16l2.16 14.23 5.5-2.75-0.5-11.48z" fill="#B34441"/>
  <path d="m192.3 0-6.61 7.28 7.7 4.95 4.96-6-6.05-6.23z" fill="#FF7344"/>
  <path d="m184.6 0-12.71 3.35 1.1 7.68 10.35-3.9 4.91-4.96-3.65-2.17z" fill="#D3BCC5"/>
  <path d="m165.4 0-9.34 2.25 5.45 8.28 6.01-2.25 1.64-6.61-3.76-1.67z" fill="#D3DFEA"/>
  <path d="m153.8 0-6.56 2.25 1.1 12.13 6.56-1.1 3.34-8.3-4.44-4.98z" fill="#A1B9D1"/>
  <path d="m145.5 0-10.35 2.25 3.29 9.98 8.79 0.55 4.42-6.6-6.15-6.18z" fill="#D3DFEA"/>
  <path d="m129.6 0-10.35 2.25 4.37 8.28 8.8-1.1 6.01-4.45-8.83-4.98z" fill="#A1B9D1"/>
  <path d="m114.3 0-7.21 2.25 3.9 9.43 5.45-0.55 3.86-6.65-6-4.48z" fill="#6798B2"/>
  <path d="m97.85 0-7.73 2.25 1.69 8.88 5.45 0.55 5.45-7.76-4.86-3.92z" fill="#D3DFEA"/>
  <path d="m83.05 0-10.35 2.25 3.86 9.43 6.01-0.55 4.95-7.76-4.47-3.37z" fill="#A1B9D1"/>
  <path d="m68.3 0-10.34 2.25 3.29 12.73 6.01-1.1 5.45-8.9-4.41-4.98z" fill="#D3BCC5"/>
  <path d="m60.56 0h-12.16l1.65 9.43 5.45 1.1 5.06-10.53z" fill="#B34441"/>
  <path d="m43.53 0-12.7 1.1 1.64 10.58 8.8-0.55 8.28-8.88-6.02-2.25z" fill="#D3DFEA"/>
  <path d="m27.65 0-10.34 1.67 2.21 8.86 7.11 1.7 4.33-8.86-3.31-3.37z" fill="#A1B9D1"/>
  <path d="m11.18 0-11.07 1.1v9.43l7.16 1.15 3.91-11.68z" fill="#B34441"/>
  <path d="m0.11 17.91 7.21 4.4v8.26l-7.21 1.65v-14.31z" fill="#B34441"/>
  <path d="m11.03 8.63-10.92 14.24 10.92 2.75 2.74-10.99-2.74-6z" fill="#B34441"/>
  <path d="m16.48 20.11 7.16-2.75 2.73 7.71-3.28 5.45-7.7-1.65 1.09-8.76z" fill="#F7A6A5"/>
  <path d="m20.29 30.02-7.74 3.85 2.79 8.84 9.35-2.2 2.73-7.74-7.13-2.75z" fill="#FF7344"/>
  <path d="m0.11 44.01 8.28 5.45-8.28 6v-11.45z" fill="#B34441"/>
  <path d="m5.56 49.46-5.45 4.9v8.9l7.69-2.75 2.73-8.3-4.97-2.75z" fill="#FF7344"/>
  <path d="m0.11 69.13 6.01 2.25-6.01 6.65v-8.9z" fill="#B34441"/>
  <path d="m0.11 93.39 7.16 3.35-7.16 6.6v-9.95z" fill="#B34441"/>
  <path d="m0.11 110.7 6.56 1.1-4.43 7.22-2.13-1.65v-6.67z" fill="#B34441"/>
  <path d="m0.11 133.1 6.56 3.3-5.51 11.14-1.05-1.1v-13.34z" fill="#6798B2"/>
  <path d="m0.11 155.2 7.16 1.1-2.74 5.46-4.42-0.55v-6.01z" fill="#6798B2"/>
  <path d="m49.49 163.4 7.16 2.75v0.85h-12.66l0.55-2.15 4.95-1.45z" fill="#6798B2"/>
  <path d="m129.7 164 1.64 3.05h-3.32l1.68-3.05z" fill="#A1B9D1"/>
  <path d="m249.9 13.03-19.79 3.35v12.14l9.39-2.25 10.4-7.24v-6z" fill="#F0E6EC"/>
  <path d="m223.5 10.53-14.3 0.05-2.24 8.9 7.73 4.94 6.61-2.8-2.21-5.44 4.41-5.65z" fill="#D3DFEA"/>
  <path d="m201.1 10.53-9.9 1.7-3.34 7.2 4.96 3.89 7.68-1.7 0.6-11.09z" fill="#D3BCC5"/>
  <path d="m186.2 10.53-10.34 2.25-1.1 12.64 5.45 5.5 4.91-5.5-2.21-8.29 3.29-6.6z" fill="#7A2A2A"/>
  <path d="m170.9 10.53-10.35 1.7-2.26 9.49 9.8 1.65 4.42-3.35-1.61-9.49z" fill="#F0E6EC"/>
  <path d="m149.4 14.43-4.91 2.8-1.1 14.24 6.55-1.1 2.21-11.54-2.75-4.4z" fill="#65749A"/>
  <path d="m136.2 8.08-10.35 3.3 3.29 18.64 7.06-2.2 2.79-13.14-2.79-6.6z" fill="#F7A6A5"/>
  <path d="m126.8 12.48-7.74 2.75 1.7 8.29 6-2.25 2.21-6.04-2.17-2.75z" fill="#B34441"/>
  <path d="m126.3 23.47-6.01 4.4 3.86 8.85 6.01-1.1 0.55-7.75-4.41-4.4z" fill="#616C9F"/>
  <path d="m142.2 36.12-8.79 2.8-2.74 6.65 6.61 7.19 7.16-3.3 2.73-9.44-4.97-3.9z" fill="#F0DADB"/>
  <path d="m164.8 23.47-7.74 2.75 3.85 11.05 6.61 0.55 2.74-8.3-5.46-6.05z" fill="#F7A6A5"/>
  <path d="m176.1 23.47-2.74 9.95 6.01 7.7 7.16-5.45-2.15-6.7-8.28-5.5z" fill="#B34441"/>
  <path d="m188.3 24.02 10.35 1.65v9.45l-3.86 7.19-6.49-9.99v-8.3z" fill="#B34441"/>
  <path d="m203.6 23.47 5.45 1.65 8.84 7.8-2.79 7.69-7.74-1.1-4.86-7.19 1.1-8.85z" fill="#F0DADB"/>
  <path d="m221.3 23.47-7.16 2.75 5.45 6 3.29-2.75-1.58-6z" fill="#B34441"/>
  <path d="m234.5 30.62-9.35 3.9-1.64 9.44 6.01 2.25 6.61-6.65-1.63-8.94z" fill="#D3BCC5"/>
  <path d="m118.2 43.36-4.9 4.9 4.42 7.2 7.16 1.1 6.56-4.45-6.01-8.75h-7.23z" fill="#D3BCC5"/>
  <path d="m153.2 36.12 5.45 4.94 3.86 9.95-6.01 0.55-4.91-8.3 1.61-7.14z" fill="#D3BCC5"/>
  <path d="m178.4 41.06-4.91 6.6 2.73 5.45 10.35-2.2 1.1-6.05-9.27-3.8z" fill="#D3BCC5"/>
  <path d="m199.2 37.22 2.74 13.69 4.42 1.15 3.29-6.65-4.96-8.29-5.49 0.1z" fill="#F0DADB"/>
  <path d="m48.4 12.23-12.66 2.25-2.21 9.94 7.69 2.2 7.68-6.6-0.5-7.79z" fill="#7A2A2A"/>
  <path d="m57.75 12.23-8.29 3.85 1.65 9.94 7.15 1.7 3.86-7.2-4.37-8.29z" fill="#7A2A2A"/>
  <path d="m70.45 25.42-7.16 8.3 1.64 11.09 7.68-3.85 3.86-8.84-6.02-6.7z" fill="#D3BCC5"/>
  <path d="m36.39 29.32-1.65 8.9 2.74 8.29 7.69-1.65 1.64-8.94-10.42-6.6z" fill="#D3DFEA"/>
  <path d="m46.74 29.32-1.64 8.3 10.92 9.99 9.9-1.1-2.21-9.44-16.97-7.75z" fill="#F0E6EC"/>
  <path d="m131.2 156.9 1.1 4.96 7.74-1.1 2.21 2.2 5.45-3.3 4.42 2.75 3.29-4.45 8.79 2.25 5.45-2.75 5.46 4.95h10.35l5.45-4.45 5.45 3.9 7.74-3.3 6.01 3.3 10.93-3.3 5.45 1.1 1.69-4.46 6.01 4.41 4.91-6.06-7.16-7.15-9.35-8.89-6.51 6.64-5.97-4.39-8.24 1.69-10.36 3.3-6.61-1.65-11.44 2.2-7.16 0.55-2.74-3.9-7.74 1.1-5.45-2.75-7.16 4.95-6.61 2.3-5.4 9.35z" fill="#B8B7C1"/>
  <path d="m158.6 145.3-4.42 6 3.28 6 8.79-0.55 2.21-7.2-9.86-4.25z" fill="#E8E8F2"/>
  <path d="m174.5 145.8-3.85 8.85 7.16 4.4 7.11-1.65 2.21-8.9-12.63-2.7z" fill="#FEFEFF"/>
  <path d="m192 146.4-2.74 9.45 11.44 1.1 5.45-4.45-3.85-7.2-10.3 1.1z" fill="#E8E8F2"/>
  <path d="m204.1 142.5-2.74 8.3 7.16 4.4 10.93-1.65 4.42-4.45-12.61-6.05-7.16-0.55z" fill="#E8E8F2"/>
  <path d="m163 107.3-6.56 1.1-2.21 14.77 6.01 4.4 7.69-1.1 1.1-11.65-6.03-7.52z" fill="#FEFEFF"/>
  <path d="m177.8 96.24-5.45 9.39 4.9 7.2 6.56-1.65 1.1-10.49-7.11-4.45z" fill="#E8E8F2"/>
  <path d="m195.9 82.55-8.84 6 4.42 7.74 7.74 2.25 5.45-6-2.26-8.29-6.51-1.7z" fill="#D3BCC5"/>
  <path d="m199.2 99.04-7.16 6v8.29l5.45 4.95 9.9-1.15 2.74-8.85-10.93-9.24z" fill="#FEFEFF"/>
  <path d="m221.8 88.6-8.34 8.84 1.1 9.44 6.61 4.4 6.56-7.75-1.65-9.94-4.28-4.99z" fill="#E8E8F2"/>
  <path d="m231.1 97.99-3.29 4.95 2.21 5.44 6.56 1.1 1.1-7.75-6.58-3.74z" fill="#B34441"/>
  <path d="m10.53 61.41-5.45 4.4 5.45 2.25 4.91-4.45-4.91-2.2z" fill="#632251"/>
  <path d="m21.45 136.1-6.01 12.64 2.21 7.7 5.44 7.21 3.86-0.55 2.16 2.25 5.45 1.1 1.65-4.4 2.78-1.15 3.86-1.1-0.55-6.01-3.85-8.3 1.09-3.85-3.85-3.3-8.79-2.24h-5.45z" fill="#989188"/>
  <path d="m20.35 137.8 1.1 3.89-4.42 7.2 1.64 2.75 10.35-3.35 2.21 2.76 3.33 8.3 1.1 4.95 2.79-2.25-1.1-8.85 3.85 3.29 1.15 2.21 0.55-3.31-4.91-10.5 0.5-5.44-2.78-1.1-2.74 1.65-6.01-0.55-3.34-2.2-3.27 0.55z" fill="#E8E8E3"/>
  <path d="m12.17 47.11-4.9 3.9 3.86 2.2 5.45-3.35-4.41-2.75z" fill="#B34441"/>
  <path d="m24.83 38.32-6.56 2.74 2.74 4.95 10.35-0.55-1.69-6-4.84-1.14z" fill="#65749A"/>
  <path d="m148.8 100.1-3.29 9.94 6.01 13.14-4.42 14.23 6.61 2.2 4.91-8.9-3.29-12.7 2.79-14.76-9.32-3.15z" fill="#333166"/>
  <path d="m172.9 124.4-2.21 8.89 2.79 8.85 6.01-1.1-0.05-7.75-2.69-8.24-3.85-0.65z" fill="#2A283A"/>
  <path d="m183.2 129 3.34 10.55 4.91-1.1 2.21-6.05-4.42-6.7-6.04 3.3z" fill="#D3BCC5"/>
  <path d="m195.4 126.8 5.45-3.35 6.56 2.8 4.96-1.7 6.01-0.05 2.21 4.95-6.56 6.65-9.91 1.1-6.56-2.75-2.16-7.65z" fill="#501616"/>
  <path d="m222.3 131.2 4.91-6.65 6.56 3.35-1.7 11.15 2.79 8.34-4.42 1.7-7.16-10.64-0.98-7.25z" fill="#F94819"/>
  <path d="m55.61 159.6 3.29 3.9 5.46-2.25 7.15 1.65 9.35 0.6 9.86 1.1 16.52 1.7 8.79-3.35 8.29-2.75 3.85 6-1.09-7.7-4.43-8.9 1.1-3.21-5.5-2.25-17.07 12.2-14.75 6.61-13.77-1.15-9.4-3.25-7.65 1.05z" fill="#008C03"/>
  <path d="m49.01 159.6 4.95 3.35 3.29-5.51-2.79-13.3-5.45 7.8v7.66z" fill="#2A283A"/>
  <path d="m55.01 159.1 2.26 1.65 5.45-2.8 12.01 1.1 10.93-3.31 14.8-5.5 18.32-13.19 8.28-3.9 9.86-10 3.86 1.65-1.1 8.3-4.42 8.3-10.88 11.09-4.95-3.35-11.44 8.3-15.35 7.76h-32.08l-5.55-6.1z" fill="#2A0953"/>
  <path d="m54.46 142.5 4.42 6.6 4.38-11.64-1.1-4.95-7.15 4.45-0.55 5.54z" fill="#008C03"/>
  <path d="m42.87 131.6 2.21 4.45 9.35 0.55 2.79-6.55-3.86-2.8-4.95 1.65-5.54 2.7z" fill="#501616"/>
  <path d="m183.3 61.26 1.1 15.94 25.5-8.84 1.69-11.1-3.85 0.55-2.21 2.2-22.23 1.25z" fill="#911006"/>
  <path d="m55.56 63.46 12.66-4.45 6.01-7.75 5.45-2.75 10.93 0.05 13.21-0.05 5.45 2.2 1.1 5.45 4.42 1.65 2.74-0.55 2.73 1.65 4.43-0.55 4.37 1.15 3.29 1.1 4.91 0.6 6.01 2.2 4.91 0.05 4.41 1.1 4.91-2.25 3.85-0.55 6.56-1.1 10.35-0.55 5.45 1.1 0.55 11.04-2.74 1.65-4.91-1.65-1.61 8.3 2.79 12.14-3.34 2.2-14.3 0.55-12.02 2.25-9.85 4.4-2.74 9.44 4.42 4.45-0.55 10.49-4.37 11.03-2.21 0.05-8.29 12.14-4.42-2.2 3.34-6-18.83 14.25-18.37 8.3-23.05-1.7-7.69-2.19-1.1-21.95 0.55-10.5-5.45-0.55-9.86 8.9-12.7 1.1-14.3-7.75 14.3-26.41 17.77-28.04 5.45-8.84 5.38-2.65z" fill="#2A0953"/>
  <path d="m60.56 77.2c-3.34-0.55-2.19-7.1 1.6-8.1l0.65 1.05c-2.79 0.55-3.34 4.4-1.7 5.45 1.65 1.05 4.44-2.25 4.44-4.45l1.1 0.55c-0.55 2.75-3.34 6.05-6.09 5.5z" fill="#F7E761"/>
  <path d="m73.17 69.11-1.32-6.1-2.64 1.15 1.05 5.85-1.54 0.7-1.25-7.5 3.49-1.8 3.45 0.6 0.7 6.35-1.94 0.75z" fill="#F7E761"/>
  <path d="m77.11 61.26 3.8-0.1 1.25 1.8 1.65-2.15 3.29-0.1 0.35 6.9-1.7 0.3-0.5-5.6-1.54 2.55h-1.8l-1.5-2.25-0.15 5.3-1.85 0.2-1.3-6.85z" fill="#F7E761"/>
  <path d="m90.12 60.71 3.95-0.3c1.85-0.15 2.7 1.4 2.5 2.8-0.25 1.5-1.45 2.75-3 2.7l-3.15-0.15-0.2 2.3-1.85-0.05 1.75-7.3zm0.69 4.05 2.4-0.05c0.95-0.05 1.6-0.95 1.55-1.85-0.05-0.75-0.85-1.3-1.6-1.15l-1.85 0.35-0.5 2.7z" fill="#F7E761"/>
  <path d="m100.1 63.31c2.54-0.6 3.69 0.65 3.49 2.65-0.25 2.25-2.1 4.85-4.84 5-2.26 0.1-3.46-1.35-3.06-3.45 0.5-2.35 2.2-3.7 4.41-4.2zm-2.75 4.4c-0.3 1.15 0.4 1.8 1.55 1.7 1.7-0.2 2.79-1.95 2.94-3.4 0.1-1.1-0.65-1.65-1.64-1.4-1.55 0.4-2.45 1.65-2.85 3.1z" fill="#F7E761"/>
  <path d="m104.5 72.1c0.7 1.75 2.91 2.6 4 1.5 1.3-1.35 0.45-3.55-1.45-4.54-1.25-0.7-1.2-2.95 0.3-3.55 1.65-0.65 3.54-0.15 4.94 1.35l-0.6 1.25c-1.2-1.5-3.44-1.7-3.64-0.6-0.25 1.15 2.74 1.8 3.34 3.4 0.65 1.84-0.8 4.54-3 4.84-1.8 0.25-3.49-0.85-4.34-2.4l0.45-1.25z" fill="#F7E761"/>
  <path d="m60.56 80.55 23.09 16.49 24.94-20.94 12.11 11.55 27.43-19.29 4.46-3.3-4.41-1.6-4.37 3.85-11.46-5.05-5.45-2.25-6.56-1.65h-2.79l-3.86-1.1-5.45 1.1-6.01 1.1-14.25-1.1-14.85 0.55-15.91 6.1-15.93 18.64 4.42 8.29 12.65 5.45 2.2-16.84z" fill="#369B03"/>
  <path d="m35.21 92.04-3.86 6 4.91 5.45 10.92 3.84 11.48-3.84 0.35-4.45-20.51-7.7-3.29 0.7z" fill="#F7E70B"/>
  <path d="m24.24 109 4.42-6 8.29 4.4 17.07 4.95 3.29 4.9-2.2 6-7.69-1.1-15.4-6.6-10.93 0.55 3.15-7.1z" fill="#B92005"/>
  <path d="m15.95 127.2 3.3 2.75 4.91-7.75 10.4 6 2.79 3.35-3.85 4.95-11.49-1.65-7.16-4.4 1.1-3.25z" fill="#801902"/>
  <path d="m63.26 97.14-6.61 15.94 8.84-1.15 1.11 6.55 3.85-1.15 17.07 11.59 23.1-20.39 11.49 9.95 15.35-17.09 3.85-13.19-8.29 3.34-10.92 12.64-11.48-12.64-20.31 18.14-27.05-12.54z" fill="#F7E70B"/>
  <path d="m66.55 118.4-6.51 16.52-3.9-8.3 1.1-6.6 8.79-8.9 1.64 4.45 17.92 12.15 24.93-21.97 10.4 10.5-2.26 14.22-8.24-7.75-20.31 24.24-23.56-19.29v-9.27z" fill="#F94819"/>
  <path d="m139.1 100.1 7.16-15.99 21.69-19.29 5.45-3.35 4.9-0.3 5.45 2.2 0.05 10.49-8.29-0.55-4.41 1.15-5.45 0.5-10.4 10.5-1.1 8.29-9.86 2.8-5.19 3.55z" fill="#2A0953"/>
  <path d="m154.1 93.79 1.15-7.75 10.44 1.1v6.55l-11.59 0.1z" fill="#008C03"/>
  <path d="m163.5 61.76 1.1 4.95 5.45-0.55 6.56-2.8 1.64-2.25-6.56-0.5-8.19 1.15z" fill="#F7E70B"/>
  <path d="m176.1 78.2 6.55-4.4 0.55 8.85-2.74 9.44-4.91 2.2 0.55-16.09z" fill="#F94819"/>
  <path d="m155.3 64.51-7.15 9.44 9.85-5.44 5.45-6-3.34-0.55-4.81 2.55z" fill="#B92005"/>
  <path d="m126.4 158 1.7 7.2-3.86-3.9-1.64-6.01 3.8 2.71z" fill="#F7E761"/>
  <path d="m115.5 155.2-5.45 11.66h6l1.65-6.55 2.79 0.55 1.1-4.01-3.34-2.75-2.75 1.1z" fill="#008C03"/>
  <path d="m121 164.6 1.7-2.25 3.85 2.8-3.9 0.55-1.65-1.1z" fill="#F7E70B"/>
  <path d="m89.08 165.2 1.1-1.1 1.09 2.25-2.2-0.05 0.01-1.1z" fill="#008C03"/>
  <path d="m85.79 10.38-5.45 6.65-2.79 9.44 1.1 12.15 3.85 7.74 4.42 1.1 13.2 0.5 7.16 1.65 2.25-3.35 2.74-9.44 3.29-19.84-2.2-3.35-9.91-6.55-6.01-0.55-4.91 0.55-6.74 3.3z" fill="#080016"/>
  <path d="m109.1 37.22 0.49 5.99 1.6-3.79-0.05-3.3h-1.35l-0.69 1.1z" fill="#501616"/>
  <path d="m206.4 57.21 1.65-1.65 7.73-0.55 2.21 1.1 2.16-1.1 7.16 0.5 7.16 6.6 0.55 4.4-6.06 10.54-3.85 1.65-1.6-3.85-4.95-3.3-8.29-3.34 2.25-2.75-1.1-7.2-5.02-1.05z" fill="#FEFEFF" stroke="#2A283A" stroke-miterlimit="10" stroke-width=".5"/>
  <path d="m220.1 58.31 4.9 1.7 4.42 3.85-6.01 7.15-3.29-1.65 3.85-5.55-3.87-5.5z" fill="#2A283A" stroke="#F7E70B" stroke-miterlimit="10" stroke-width=".7"/>
  <path d="m222.9 58.81-0.55 1.65 3.29 3.3-2.21 3.85 1.1 1.65 4.42-5.45-6.05-5z" fill="#6B6766"/>
  <path d="m225.6 75.95 5.45 0.55-2.74 3.35-2.79-0.55 0.08-3.35z" fill="#2A283A"/>
  <path d="m230.8 58.41 1.1 0.55 0.5 1.65 1.1 0.55 0.5-1.1 1.7 0.55 1.65 0.55 1.09-1.1 1.15 0.55-0.05 1.1 2.21-0.55 1.65 0.55 2.74 0.55 0.55 1.65-1.1 1.65-3.34 0.55-4.96-1.65-3.8-2.8-2.69-3.25z" fill="#2A283A" stroke="#F7E70B" stroke-linecap="round" stroke-linejoin="round" stroke-miterlimit="10" stroke-width=".5"/>
  <path d="m237.3 60.06 0.55 1.65" stroke="#F7E70B" stroke-linecap="round" stroke-linejoin="round" stroke-miterlimit="10" stroke-width=".5"/>
  <path d="m238.4 60.06 0.55 1.1" stroke="#F7E70B" stroke-linecap="round" stroke-linejoin="round" stroke-miterlimit="10" stroke-width=".5"/>
  <path d="m239.5 60.06 0.55 1.1" stroke="#F7E70B" stroke-linecap="round" stroke-linejoin="round" stroke-miterlimit="10" stroke-width=".5"/>
  <path d="m81.91 92.54 4.41-4.89 3.85-1.1 1.1 39.5-6.56-1.1v-28.11l-3.85-0.55 1.05-3.75z" fill="#FE5020"/>
  <path d="m212.5 59.41 0.55 1.1-0.55 1.6-1.1 1.1 0.55 2.25-1.15 2.2 2.2 1.65" stroke="#2A283A" stroke-linecap="round" stroke-linejoin="round" stroke-miterlimit="10" stroke-width=".5"/>
</svg>