<svg xmlns="http://www.w3.org/2000/svg" width="250" height="250" fill="none" viewBox="0 0 250 250">
<!-- SVG created with Arrow, by QuiverAI (https://quiver.ai) -->
  <path d="m244.7 4.71h-238.8v239.2h238.8v-239.2z" fill="#2B0D54"/>
  <path d="m6.27 28.24 13.5 17.97-11.63 3.2-1.87-4.54v-16.63z" fill="#004AAD"/>
  <path d="m9.67 19.9 21.55 13.22 6.1-1.99-11.91-10.56 9.47-12.11-6.36-2.99-12.81 10.77 5.17 7.66-11.21-4z" fill="url(#paint0_linear_2410_19442)"/>
  <path d="m31.15 20.36 9.82-15.02 10.79 21.45 6.18 9.35-13.88-6.46-3.94 0.43-8.97-9.75z" fill="#CC0909"/>
  <path d="m50.19 19.06 14.78 6.9v14.03l-4.83 0.21-11.33-15.87 1.38-5.27z" fill="#004AAD"/>
  <path d="m10.66 147.9 10.43 17.09-12.76 3.75-2.24-5.89v-15.87l4.57 0.92z" fill="#004AAD"/>
  <path d="m6.41 74.81 29.35-3.2-7.91 25.3-2.84 0.22-4.47-12.74-7.91-0.85-6.22-8.73z" fill="#CC0909"/>
  <path d="m11.74 88.77 12.35 8.64 0.64 8.16-16.65 5.2 3.66-22z" fill="#004AAD"/>
  <path d="m10.39 195.3 25.51-4.05-8.05 24.47-6.22-11.97-9.68-0.64-5.24-7.66 3.68-0.15z" fill="#CC0909"/>
  <path d="m12.41 207.6 12.75 8.78-1.28 8.72-15.37 4.5 3.9-22z" fill="#004AAD"/>
  <path d="m45.05 201.1 11.7 3.12 8.05-5.41-7.19 20.87-9.47-3.44-3.72-6.04 0.63-9.1z" fill="#004AAD"/>
  <path d="m65.48 209 4.55-0.66 11 19.55-15.55-6.45v-12.44z" fill="#004AAD"/>
  <path d="m184.7 208.1 3.3 0.84 12.21 19.84-15.51-6.86v-13.82z" fill="#004AAD"/>
  <path d="m231 202.9 11-3.88 1.87 3.74v17.16l-3.3-0.61-9.57-16.41z" fill="#004AAD"/>
  <path d="m110.1 202.5 12.21-4.08 2.78 7.52-1.87 14.01-4.08-1.72-9.04-15.73z" fill="#004AAD"/>
  <path d="m131.1 207.1 12.75 9.23 0.49 8.48-17.14 4.64 3.9-22.35z" fill="#004AAD"/>
  <path d="m165.8 200 9.18 3.04 8.97-4.94-9.33 21.82-7.52-3.82-3.45-6.04 2.15-10.06z" fill="#004AAD"/>
  <path d="m12.72 30.11 28.56 3.36 19.13 4.8 0.3 3.89-21-2.38-7.77 4.26-19.22-13.93z" fill="url(#paint1_linear_2410_19442)"/>
  <path d="m10.66 140 17.19-16.77 5.23 2.52-6.85 14.17 8.65 7.3-2.77 4.19-21.45-11.41z" fill="url(#paint2_linear_2410_19442)"/>
  <path d="m11.12 149.7 28.7 5.26 20.59 3.06 0.28 4.5-20.18 2.38-7.77-1.73-21.62-13.47z" fill="url(#paint3_linear_2410_19442)"/>
  <path d="m24.3 120.1 13.61-33.93 2.08 14.63-6.84 23.75-8.85-7.45v3z" fill="url(#paint4_linear_2410_19442)"/>
  <path d="m22.92 55.81 3.59-11.08 6.23-5.72 5.92-0.32-7.15 25.58-8.59-8.46z" fill="url(#paint5_linear_2410_19442)"/>
  <path d="m37.46 50.08 13.53-2.59 8.42 3.29-8.42 12.51-14.71 0.62 1.18-13.83z" fill="url(#paint6_linear_2410_19442)"/>
  <path d="m40.76 72.49 8.49-6.46 14.04 10.35-7.15 4.47-15.38-8.36z" fill="#CC0909"/>
  <path d="m44.42 84.25 10.29-0.85 10.02-4.88-7.7 21.24-10.79-3.82-1.82-4.08v-7.61z" fill="#004AAD"/>
  <path d="m40.33 100 10.79 1.16 1.52 8.17-4.71 2.38-7.6-11.71z" fill="#CC0909"/>
  <path d="m40.62 123.2 7.52-13.3 6.57-1.8 9.1 4.87-0.36 8.76-8.53 2.37-14.3-0.9z" fill="url(#paint7_linear_2410_19442)"/>
  <path d="m32.71 139.2 8.12-15.97 7.38 13.69-3.16 8.69 11.98 9.29-14.99-4.6-6.77 1.8-0.39-5.85-2.17-7.05z" fill="#CC0909"/>
  <path d="m49.49 138.5 15.38 7.37v14.49l-4.46-2.99-10.92-18.87z" fill="#004AAD"/>
  <path d="m23.91 174.8 2.32-9.56 6.29-6.67 6.22-0.5-6.87 25.86-7.96-9.13z" fill="url(#paint8_linear_2410_19442)"/>
  <path d="m38.81 172 12.31-4.23 8.29 2.85-7.6 12.07-15.84 1.58 2.84-12.27z" fill="url(#paint9_linear_2410_19442)"/>
  <path d="m41.11 192.7 7.8-6.66 14.46 10.22-6.36 3.94-15.9-7.5z" fill="#CC0909"/>
  <path d="m24.66 236.1 13.46-31.13 2.85 12.91-7.45 26.18-8.86-7.96z" fill="url(#paint10_linear_2410_19442)"/>
  <path d="m41.18 215.8 10.65 4.23 0.43 7.06-5.52 1.8-5.56-13.09z" fill="#CC0909"/>
  <path d="m41.04 244 7.98-15.74 6.04-1.58 8.75 4.8-0.7 10.63-11.2 1.65-10.87 0.24z" fill="url(#paint11_linear_2410_19442)"/>
  <path d="m66.67 16.38 0.92-9.35 7.63-0.7 2.7-0.92h12.96l-7.01 13.51-5.02 1.22-12.18-3.76z" fill="url(#paint12_linear_2410_19442)"/>
  <path d="m79.21 17.96 4.23-0.56 7.44 8.71v5.81l-10.56-5.81-1.11-8.15z" fill="#CC0909"/>
  <path d="m73.81 28.24 7.15 0.99 5.92 6.11-1.46 13.51-19.6 1.09 7.99-21.7z" fill="#004AAD"/>
  <path d="m66.86 51.74 7.15-3.24 16.19 7.46-7.38 7.19-15.96-11.41z" fill="#CC0909"/>
  <path d="m91.93 43.35 5.23-38.01 8.28 7.58-12.75 30.43h-0.76z" fill="url(#paint13_linear_2410_19442)"/>
  <path d="m103.3 32.13 5.16 4.94v8.85l6.7 0.21 8.59 7.13-28.7 4.26 8.25-25.39z" fill="#CC0909"/>
  <path d="m105.2 22.14 16.85-4.18-2.46 23.75-13.46-10.58-0.93-8.99z" fill="#004AAD"/>
  <path d="m125.5 26.86 13.88 19.06-12.96 3.21-1.94-5.99 1.02-16.28z" fill="#004AAD"/>
  <path d="m128 19.9 21.77 13.43 5.09-3.88-11.55-8.88 10.56-12.11-5.79-2.99-13.6 10.07 4.73 8.36-11.21-4z" fill="url(#paint14_linear_2410_19442)"/>
  <path d="m150.9 20.64 8.6-15.23 16.85 31.45-14.13-5.94-3.08-0.81-8.24-9.47z" fill="#CC0909"/>
  <path d="m169.1 19.06 14.78 5.87 0.28 16.55-4.32-1.28-12.11-16.41 1.37-4.73z" fill="#004AAD"/>
  <path d="m192.5 28.24 6.84 0.63 6.84 10.06-2.77 9.71-9.54-2.51-9.65 3.81 8.28-21.7z" fill="#004AAD"/>
  <path d="m185.6 51.95 6.85-3.45 16.12 7.82-7.45 6.83-15.52-11.2z" fill="#CC0909"/>
  <path d="m186.1 7.53 22.76-2.82-6.77 13.25-6.15 2.11-9.84-4.26v-8.28z" fill="url(#paint15_linear_2410_19442)"/>
  <path d="m196.9 17.96 5.05-0.7 7.12 10.98-1.18 2.22-10.43-3.81-0.56-8.69z" fill="#CC0909"/>
  <path d="m215.5 5.41 8.45 7.65-13.1 30.29-1.54-13.24 6.19-24.7z" fill="url(#paint16_linear_2410_19442)"/>
  <path d="m222 31.7 7.56 7.66-1.24 6.56 9.18 0.78 6.46 7.06-30.5 3.76 8.54-25.82z" fill="#CC0909"/>
  <path d="m225.1 22.64 16.45-4.54-2.84 21.96-12.31-8.72-1.3-8.7z" fill="#004AAD"/>
  <path d="m242.2 80.72 2 5.81v13.52l-4.53 0.91-9.47-17.49 12-2.75z" fill="#004AAD"/>
  <path d="m124.9 74.81 29.78-3.55-8.49 25.65-5.23-3.88-0.21-8.64-8.53-0.85-7.32-8.73z" fill="#CC0909"/>
  <path d="m130.5 88.35 13.18 10.13 1.12 7.85-17.63 3.88 3.33-21.86z" fill="#004AAD"/>
  <path d="m125.1 146.7 14.08 19.27-12.75 3.26-1.78-5.95 0.45-16.58z" fill="#004AAD"/>
  <path d="m105.2 141.9 16.85-4.76-3.3 22.63-11.69-6.67-1.86-11.2z" fill="#004AAD"/>
  <path d="m184.7 89.71 15.16 18.57-14.53-6.26-0.63-12.31z" fill="#004AAD"/>
  <path d="m224.5 142.6 16.84-5.11-3.83 23.25-11.23-9.7-1.78-8.44z" fill="#004AAD"/>
  <path d="m169 138.5 14.91 7.3v13.72l-3.72-0.95-11.19-20.07z" fill="#004AAD"/>
  <path d="m124.8 195.1 30.51-4.05-8.73 25.34-5.36-12.16-9.34-2.03-7.08-7.1z" fill="#CC0909"/>
  <path d="m130.1 28.24 19 8.83 10.65-4.94 19.22 4.94 1.03 4.04-20.93 4.26-1.17-5.87-7.15 24.77-8.9-8.24 4.65-11.8-16.4-15.99z" fill="url(#paint17_linear_2410_19442)"/>
  <path d="m157.9 49.72 10.99-2.23 8.9 2.66-9.4 13.76-12.89 0.36 2.4-14.55z" fill="url(#paint18_linear_2410_19442)"/>
  <path d="m159.5 72.14 8.97-6.73 14.46 11.4-9.11 4.04-14.32-8.71z" fill="#CC0909"/>
  <path d="m165.4 80.92 8.61 3.05 9.87-5.52-8.84 21.6-10.89-4.94-1.09-5.69 2.34-8.5z" fill="#004AAD"/>
  <path d="m159.7 100 9.34 0.91 2.46 7.69-4.9 2.82-6.9-11.42z" fill="#CC0909"/>
  <path d="m160.1 123.2 7.16-13.09 6.29-1.5 9.14 3.51 0.21 9-6.4 2.46-16.4-0.38z" fill="url(#paint19_linear_2410_19442)"/>
  <path d="m150.7 142 8.03-18.11 7.38 12.58-2.46 7.45 11.98 10.88-13.88-4.74-6.5 2.01-4.55-10.07z" fill="#CC0909"/>
  <path d="m128.2 140 19.52 5.75-13.46-11.41 11.7-11.11 7.31 3.59-8.21 13.03 8.87 7.86-3.37 5.72-22.36-13.43z" fill="url(#paint20_linear_2410_19442)"/>
  <path d="m130.1 149.6 20.12 8.17 4.66-4.01 22.98 4.01 1.11 3.82-11.82 3.49-8.08-4.73-8.01 23.57-9.21-8.72 4.8-10.84-16.55-14.76z" fill="url(#paint21_linear_2410_19442)"/>
  <path d="m158.2 170.5 10.91-2.78 8.49 3.67-7.45 10.9-14.82 1.93 2.87-13.72z" fill="url(#paint22_linear_2410_19442)"/>
  <path d="m159.6 192.2 7.97-6.17 13.53 9.67-6.29 4.49-15.21-7.99z" fill="#CC0909"/>
  <path d="m143.9 117.8 14.07-32.14 1.78 16.52-7.45 21.7-8.4-6.08z" fill="url(#paint23_linear_2410_19442)"/>
  <path d="m185.9 126.1 9.98-1.4h12.92l-7.22 13.06-6.7 2.93-9.3-4.84 0.32-9.75z" fill="url(#paint24_linear_2410_19442)"/>
  <path d="m197 138.5 7.31 2.59 4.65 6.59v3.34l-10.09-2.03-1.87-10.49z" fill="#CC0909"/>
  <path d="m192.4 147.7 8.5 2 4.96 8.03-3.66 10.28-8.5-1.94-9.53 3.95 8.23-22.32z" fill="#004AAD"/>
  <path d="m185.6 172.3 8.36-3.56 14.54 7.13-8.4 6.77-14.5-10.34z" fill="#CC0909"/>
  <path d="m189.6 197.1 7.38-9.99 15.9-2.81-3.83 14.49-9.33 2.36-10.12-4.05z" fill="url(#paint25_linear_2410_19442)"/>
  <path d="m188.1 207.3 19.82-6.6 1.39 7.23 8.42-23.7 8.8 8.46-4.01 11.23 17.39 14.4-23.27-6.73-7.68 3.45-20.86-7.74z" fill="url(#paint26_linear_2410_19442)"/>
  <path d="m205.3 216.8 9.82 10.28-5.86 16.98-16.52-31.49 12.56 4.23z" fill="#CC0909"/>
  <path d="m215.1 219.4 5.09-5.6 19.82 12.81-10.72-3.42 4.53 10.13-13.49 11.6-6.22-2.89 8.44-14.36-7.45-8.27z" fill="url(#paint27_linear_2410_19442)"/>
  <path d="m143.7 236.5 14.21-31.77 1.78 16.21-7.31 23.17-8.68-7.61z" fill="url(#paint28_linear_2410_19442)"/>
  <path d="m159.3 215.3 10.43 4.23 0.56 9.13-5.16 1.06-5.83-14.42z" fill="#CC0909"/>
  <path d="m160.1 243.8 6.29-14.46 7.08-2.62 9.61 4.73-0.32 10.39-11.79 2.1-10.87-0.14z" fill="url(#paint29_linear_2410_19442)"/>
  <path d="m189 88.35 20.11-5.94v6.5l8.63-24.64 8.36 8.65-3.72 12.11 16.62 14.03-24.52-8.86-6.18 4.91-19.3-6.76z" fill="url(#paint30_linear_2410_19442)"/>
  <path d="m191.9 93.03 11.99 6.1 6.22 8.46-1.47 16.34-16.74-30.9z" fill="#CC0909"/>
  <path d="m214.7 101.2 3.52-5.48 21.7 12.41-10.82-4.01 5.16 8.88-13 11.72-4.83-1.77 7.22-14.63-8.95-7.12z" fill="url(#paint31_linear_2410_19442)"/>
  <path d="m208.7 147.2 7-23.37 8.97 7.86-13.46 30.89-2.51-15.38z" fill="url(#paint32_linear_2410_19442)"/>
  <path d="m221.4 151.4 7.45 6.48-0.92 6.92 9.47 1.49 5.92 6.59-29.92 3.91 8-25.39z" fill="#CC0909"/>
  <path d="m189.8 78.1 7.8-12 14.78-1.4-2.59 13.04-9.27 4.39-10.72-4.03z" fill="url(#paint33_linear_2410_19442)"/>
  <path d="m70.63 78.1 9.21-12.5 14.07-1.33-1.98 12.96-9.04 4.9-12.26-4.03z" fill="url(#paint34_linear_2410_19442)"/>
  <path d="m70.11 88.91 20.52-6.29 0.25 6.5 7.77-24.85 8.71 8.79-4.22 12.33 16.62 13.32-21.53-8.1-7.35 4.22-20.77-5.92z" fill="url(#paint35_linear_2410_19442)"/>
  <path d="m72.22 93.61 17.49 3.87 6.7 10.11-5.53 16.34-8.87-14.62 1.15-1.72-10.94-13.98z" fill="#CC0909"/>
  <path d="m67.24 88.63 4.69-0.56 9.83 19.79-15.94-5.35 0.07-12.88 1.35-1z" fill="#004AAD"/>
  <path d="m67.31 136.1 0.21-10.28 8.18-1.15h13.73l-6.54 14.16-5.62 1.4-9.96-4.13z" fill="url(#paint36_linear_2410_19442)"/>
  <path d="m79.21 137.9 5.23 0.56 6.29 7.7v4.4l-11.52-2.65v-10.01z" fill="#CC0909"/>
  <path d="m73.98 147.7 8.7 2.3 4.9 6.05-2.92 12.02-9.1-1.51-10.02 3.52 8.44-22.38z" fill="#004AAD"/>
  <path d="m66.04 171.8 8.59-3.13 15.65 7.13-8.06 6.77-16.18-10.77z" fill="#CC0909"/>
  <path d="m70.77 197.4 7.15-10.34 15.99-2.81-3.03 14.7-10.12 1.57-9.99-3.12z" fill="url(#paint37_linear_2410_19442)"/>
  <path d="m69.24 207.9 20.65-7.16 0.99 7.58 7.45-24.05 9.03 8.46-4.01 10.62 16.41 15.47-21.92-8.24-8.77 3.89-19.83-6.57z" fill="url(#paint38_linear_2410_19442)"/>
  <path d="m74.29 212.6 16.44 5.45 7.08 9.95-7.45 16.09-11.01-16.84 3.47-1.65-8.53-13z" fill="#CC0909"/>
  <path d="m95.72 218.9 4.47-4.72 20.93 13.7-9.96-3.03 3.46 7.79-14.07 11.83-4.47-4.54 8.19-13.29-8.55-7.74z" fill="url(#paint39_linear_2410_19442)"/>
  <path d="m95.25 100.1 3.79-5.01 22.08 13.03-11-3.52 4.73 8.96-11.99 10.94-6.15-3.36 7.92-13.02-9.38-8.02z" fill="url(#paint40_linear_2410_19442)"/>
  <path d="m91.65 162.6 5.23-38.99 8.34 7.45-12.39 31.54h-1.18z" fill="url(#paint41_linear_2410_19442)"/>
  <path d="m102.8 151.9 4.65 3.76 0.7 9.47 9.27 2.63 6.15 5.28-28.53 3.42 7.76-24.56z" fill="#CC0909"/>
  <path d="m108.5 83.33 13.81-3.42 2.15 7.81-1.71 11.34-1.71-0.43-12.54-15.3z" fill="#004AAD"/>
  <defs>
    <linearGradient id="paint0_linear_2410_19442" x1="22.25" x2="22.25" y1="5.467" y2="33.12" gradientUnits="userSpaceOnUse">
      <stop stop-color="#FFF64D" offset="0"/>
      <stop stop-color="#F4E104" offset="1"/>
    </linearGradient>
    <linearGradient id="paint1_linear_2410_19442" x1="36.56" x2="36.56" y1="30.11" y2="44.04" gradientUnits="userSpaceOnUse">
      <stop stop-color="#FFF64D" offset="0"/>
      <stop stop-color="#F4E104" offset="1"/>
    </linearGradient>
    <linearGradient id="paint2_linear_2410_19442" x1="22.77" x2="22.77" y1="123.2" y2="151.4" gradientUnits="userSpaceOnUse">
      <stop stop-color="#FFF64D" offset="0"/>
      <stop stop-color="#F4E104" offset="1"/>
    </linearGradient>
    <linearGradient id="paint3_linear_2410_19442" x1="35.9" x2="35.9" y1="149.7" y2="164.9" gradientUnits="userSpaceOnUse">
      <stop stop-color="#FFF64D" offset="0"/>
      <stop stop-color="#F4E104" offset="1"/>
    </linearGradient>
    <linearGradient id="paint4_linear_2410_19442" x1="32.15" x2="32.15" y1="86.14" y2="124.5" gradientUnits="userSpaceOnUse">
      <stop stop-color="#FFF64D" offset="0"/>
      <stop stop-color="#F4E104" offset="1"/>
    </linearGradient>
    <linearGradient id="paint5_linear_2410_19442" x1="30.74" x2="30.74" y1="38.69" y2="64.27" gradientUnits="userSpaceOnUse">
      <stop stop-color="#FFF64D" offset="0"/>
      <stop stop-color="#F4E104" offset="1"/>
    </linearGradient>
    <linearGradient id="paint6_linear_2410_19442" x1="47.84" x2="47.84" y1="47.49" y2="63.91" gradientUnits="userSpaceOnUse">
      <stop stop-color="#FFF64D" offset="0"/>
      <stop stop-color="#F4E104" offset="1"/>
    </linearGradient>
    <linearGradient id="paint7_linear_2410_19442" x1="52.02" x2="52.02" y1="108.1" y2="124.2" gradientUnits="userSpaceOnUse">
      <stop stop-color="#FFF64D" offset="0"/>
      <stop stop-color="#F4E104" offset="1"/>
    </linearGradient>
    <linearGradient id="paint8_linear_2410_19442" x1="31.23" x2="31.23" y1="158.1" y2="184" gradientUnits="userSpaceOnUse">
      <stop stop-color="#FFF64D" offset="0"/>
      <stop stop-color="#F4E104" offset="1"/>
    </linearGradient>
    <linearGradient id="paint9_linear_2410_19442" x1="47.69" x2="47.69" y1="167.8" y2="184.3" gradientUnits="userSpaceOnUse">
      <stop stop-color="#FFF64D" offset="0"/>
      <stop stop-color="#F4E104" offset="1"/>
    </linearGradient>
    <linearGradient id="paint10_linear_2410_19442" x1="32.82" x2="32.82" y1="205" y2="244.1" gradientUnits="userSpaceOnUse">
      <stop stop-color="#FFF64D" offset="0"/>
      <stop stop-color="#F4E104" offset="1"/>
    </linearGradient>
    <linearGradient id="paint11_linear_2410_19442" x1="52.43" x2="52.43" y1="226.7" y2="244" gradientUnits="userSpaceOnUse">
      <stop stop-color="#FFF64D" offset="0"/>
      <stop stop-color="#F4E104" offset="1"/>
    </linearGradient>
    <linearGradient id="paint12_linear_2410_19442" x1="78.78" x2="78.78" y1="5.406" y2="20.14" gradientUnits="userSpaceOnUse">
      <stop stop-color="#FFF64D" offset="0"/>
      <stop stop-color="#F4E104" offset="1"/>
    </linearGradient>
    <linearGradient id="paint13_linear_2410_19442" x1="98.55" x2="98.55" y1="5.336" y2="43.35" gradientUnits="userSpaceOnUse">
      <stop stop-color="#FFF64D" offset="0"/>
      <stop stop-color="#F4E104" offset="1"/>
    </linearGradient>
    <linearGradient id="paint14_linear_2410_19442" x1="141.5" x2="141.5" y1="5.467" y2="33.33" gradientUnits="userSpaceOnUse">
      <stop stop-color="#FFF64D" offset="0"/>
      <stop stop-color="#F4E104" offset="1"/>
    </linearGradient>
    <linearGradient id="paint15_linear_2410_19442" x1="200.1" x2="200.1" y1="4.707" y2="20.07" gradientUnits="userSpaceOnUse">
      <stop stop-color="#FFF64D" offset="0"/>
      <stop stop-color="#F4E104" offset="1"/>
    </linearGradient>
    <linearGradient id="paint16_linear_2410_19442" x1="216.6" x2="216.6" y1="5.406" y2="43.35" gradientUnits="userSpaceOnUse">
      <stop stop-color="#FFF64D" offset="0"/>
      <stop stop-color="#F4E104" offset="1"/>
    </linearGradient>
    <linearGradient id="paint17_linear_2410_19442" x1="155" x2="155" y1="28.24" y2="64.27" gradientUnits="userSpaceOnUse">
      <stop stop-color="#FFF64D" offset="0"/>
      <stop stop-color="#F4E104" offset="1"/>
    </linearGradient>
    <linearGradient id="paint18_linear_2410_19442" x1="166.6" x2="166.6" y1="47.49" y2="64.27" gradientUnits="userSpaceOnUse">
      <stop stop-color="#FFF64D" offset="0"/>
      <stop stop-color="#F4E104" offset="1"/>
    </linearGradient>
    <linearGradient id="paint19_linear_2410_19442" x1="171.5" x2="171.5" y1="108.6" y2="123.8" gradientUnits="userSpaceOnUse">
      <stop stop-color="#FFF64D" offset="0"/>
      <stop stop-color="#F4E104" offset="1"/>
    </linearGradient>
    <linearGradient id="paint20_linear_2410_19442" x1="143.2" x2="143.2" y1="123.2" y2="153.4" gradientUnits="userSpaceOnUse">
      <stop stop-color="#FFF64D" offset="0"/>
      <stop stop-color="#F4E104" offset="1"/>
    </linearGradient>
    <linearGradient id="paint21_linear_2410_19442" x1="154.5" x2="154.5" y1="152.5" y2="184" gradientUnits="userSpaceOnUse">
      <stop stop-color="#FFF64D" offset="0"/>
      <stop stop-color="#F4E104" offset="1"/>
    </linearGradient>
    <linearGradient id="paint22_linear_2410_19442" x1="166.5" x2="166.5" y1="167.8" y2="184.3" gradientUnits="userSpaceOnUse">
      <stop stop-color="#FFF64D" offset="0"/>
      <stop stop-color="#F4E104" offset="1"/>
    </linearGradient>
    <linearGradient id="paint23_linear_2410_19442" x1="151.8" x2="151.8" y1="85.71" y2="123.9" gradientUnits="userSpaceOnUse">
      <stop stop-color="#FFF64D" offset="0"/>
      <stop stop-color="#F4E104" offset="1"/>
    </linearGradient>
    <linearGradient id="paint24_linear_2410_19442" x1="197.3" x2="197.3" y1="124.7" y2="140.6" gradientUnits="userSpaceOnUse">
      <stop stop-color="#FFF64D" offset="0"/>
      <stop stop-color="#F4E104" offset="1"/>
    </linearGradient>
    <linearGradient id="paint25_linear_2410_19442" x1="201" x2="201" y1="184.3" y2="201.1" gradientUnits="userSpaceOnUse">
      <stop stop-color="#FFF64D" offset="0"/>
      <stop stop-color="#F4E104" offset="1"/>
    </linearGradient>
    <linearGradient id="paint26_linear_2410_19442" x1="214" x2="214" y1="184.3" y2="218.3" gradientUnits="userSpaceOnUse">
      <stop stop-color="#FFF64D" offset="0"/>
      <stop stop-color="#F4E104" offset="1"/>
    </linearGradient>
    <linearGradient id="paint27_linear_2410_19442" x1="222.8" x2="222.8" y1="213.8" y2="244.9" gradientUnits="userSpaceOnUse">
      <stop stop-color="#FFF64D" offset="0"/>
      <stop stop-color="#F4E104" offset="1"/>
    </linearGradient>
    <linearGradient id="paint28_linear_2410_19442" x1="151.7" x2="151.7" y1="204.7" y2="244.1" gradientUnits="userSpaceOnUse">
      <stop stop-color="#FFF64D" offset="0"/>
      <stop stop-color="#F4E104" offset="1"/>
    </linearGradient>
    <linearGradient id="paint29_linear_2410_19442" x1="171.5" x2="171.5" y1="226.7" y2="243.9" gradientUnits="userSpaceOnUse">
      <stop stop-color="#FFF64D" offset="0"/>
      <stop stop-color="#F4E104" offset="1"/>
    </linearGradient>
    <linearGradient id="paint30_linear_2410_19442" x1="214.5" x2="214.5" y1="64.27" y2="99.06" gradientUnits="userSpaceOnUse">
      <stop stop-color="#FFF64D" offset="0"/>
      <stop stop-color="#F4E104" offset="1"/>
    </linearGradient>
    <linearGradient id="paint31_linear_2410_19442" x1="223.9" x2="223.9" y1="95.73" y2="124.7" gradientUnits="userSpaceOnUse">
      <stop stop-color="#FFF64D" offset="0"/>
      <stop stop-color="#F4E104" offset="1"/>
    </linearGradient>
    <linearGradient id="paint32_linear_2410_19442" x1="216.6" x2="216.6" y1="123.9" y2="162.6" gradientUnits="userSpaceOnUse">
      <stop stop-color="#FFF64D" offset="0"/>
      <stop stop-color="#F4E104" offset="1"/>
    </linearGradient>
    <linearGradient id="paint33_linear_2410_19442" x1="201.1" x2="201.1" y1="64.7" y2="82.13" gradientUnits="userSpaceOnUse">
      <stop stop-color="#FFF64D" offset="0"/>
      <stop stop-color="#F4E104" offset="1"/>
    </linearGradient>
    <linearGradient id="paint34_linear_2410_19442" x1="82.27" x2="82.27" y1="64.27" y2="82.13" gradientUnits="userSpaceOnUse">
      <stop stop-color="#FFF64D" offset="0"/>
      <stop stop-color="#F4E104" offset="1"/>
    </linearGradient>
    <linearGradient id="paint35_linear_2410_19442" x1="94.94" x2="94.94" y1="64.27" y2="98.71" gradientUnits="userSpaceOnUse">
      <stop stop-color="#FFF64D" offset="0"/>
      <stop stop-color="#F4E104" offset="1"/>
    </linearGradient>
    <linearGradient id="paint36_linear_2410_19442" x1="78.38" x2="78.38" y1="124.7" y2="139.9" gradientUnits="userSpaceOnUse">
      <stop stop-color="#FFF64D" offset="0"/>
      <stop stop-color="#F4E104" offset="1"/>
    </linearGradient>
    <linearGradient id="paint37_linear_2410_19442" x1="81.54" x2="81.54" y1="184.3" y2="200.5" gradientUnits="userSpaceOnUse">
      <stop stop-color="#FFF64D" offset="0"/>
      <stop stop-color="#F4E104" offset="1"/>
    </linearGradient>
    <linearGradient id="paint38_linear_2410_19442" x1="94.5" x2="94.5" y1="184.3" y2="218.8" gradientUnits="userSpaceOnUse">
      <stop stop-color="#FFF64D" offset="0"/>
      <stop stop-color="#F4E104" offset="1"/>
    </linearGradient>
    <linearGradient id="paint39_linear_2410_19442" x1="108.4" x2="108.4" y1="214.2" y2="244.4" gradientUnits="userSpaceOnUse">
      <stop stop-color="#FFF64D" offset="0"/>
      <stop stop-color="#F4E104" offset="1"/>
    </linearGradient>
    <linearGradient id="paint40_linear_2410_19442" x1="108.2" x2="108.2" y1="95.11" y2="124.5" gradientUnits="userSpaceOnUse">
      <stop stop-color="#FFF64D" offset="0"/>
      <stop stop-color="#F4E104" offset="1"/>
    </linearGradient>
    <linearGradient id="paint41_linear_2410_19442" x1="98.43" x2="98.43" y1="123.6" y2="162.6" gradientUnits="userSpaceOnUse">
      <stop stop-color="#FFF64D" offset="0"/>
      <stop stop-color="#F4E104" offset="1"/>
    </linearGradient>
  </defs>
</svg>