<svg xmlns="http://www.w3.org/2000/svg" width="250" height="250" viewBox="0 0 250 250">
<!-- SVG created with Arrow, by QuiverAI (https://quiver.ai) -->
  <path d="m244.4 5.21h-238.8v239.2h238.8v-239.2z" fill="#2D0F55"/>
  <path d="m244.2 15.71-24-3.91-17.05 1.12-21.23-0.54-34.78 5.42-19.13-1.39-25.06-4.85-17.14 2.2-21.97-1.15-35.69 5.19-22.5-1.19v28.5l31.18-14.19 22.73 19.59 26.25-18.43 15.89 12.53 23.33-12.53-0.39 11.79 30.78-13.24 22.09 19.88 26.43-18.43 15.5 12.53 24.5-11.3 0.26-17.6z" fill="#009A01"/>
  <path d="m244.2 47.11-22.09 13.83-15.75-13.47-24.25 18.24-0.75-15.3-8.75 4.9-26.72-7.45-22.94 17.45 0.75-18.58-19.76 14.54-15.39-13.76-24.71 17.8-0.89-14.9-8.43 4.9-26.72-7.45-22.15 17.85v34.41l21.46-20.8 12.76 7.89 4.27-12.29 20.64 24.49 22.94-19.1 10.9 6.9 4.57-12.29 20.75 24.79 21.99-20.39 12.54 7.89 2.97-12.13 21.28 24.49 22.93-19.26 10.16 7.19 5.7-12.58 22.15 24.49 0.78-35.35-2.2 1.25 1.96-18.2z" fill="#FFEA00"/>
  <path d="m5.62 79.96 21.46-17.85 17.03 12.81 9.37-7.42 9.44 12.81 24.81-18.2 15.43 12.81 9.6-6.83 9.12 12.22 24.02-18.2 15.51 12.42 9.37-7.03 10.31 12.81 25-18.2 15.39 12.81 9.93-6.83 11.32 12.42 1.18-2.29v20.6l-1.1 0.59-20.39-25.27-6.64 13.36-10.16-25.39-24.01 18.2-10.83-12.81-9.37 7.42-3.52 12.29-11.99-25.1-24.02 18.2-9.12-12.42-9.6 7.03-15.35-12.81-24.49 18.2-9.84-12.81-9.37 7.42-17.03-12.81-21.46 18.2v-0.35z" fill="#FF4A08"/>
  <path d="m5.62 136.3 21.72 1.66 35.94-6.56 22.11 1.99 17.53-2.54 20.36 5.75 25.55 1.28 34.06-6.48 19.77 1.35 18.86-2.29 22.89 6.54-0.5 15.65-23.79 11.25-16.21-12.93-26.18 19.06-22.34-20.35-30.86 14.22 0.35-12.66-22.8 12.66-16.14-13.13-26.41 18.91-22.73-20.2-30.59 14.57 0.12-13.28-0.71 0.24v-14.71z" fill="#009A01"/>
  <path d="m243.4 166.2-21.88 13.87-15.78-13.13-23.44 18.25-0.26-15.51-10.2 6.09-25.4-8.52-23.2 17.23 0.35-18.28-20.23 13.87-15.28-13.13-24.41 17.85-0.79-15.11-9.01 6.09-25.86-8.52-22.43 17.54v34.26l21.46-20.62 12.1 7.81 4.49-11.72 20.82 24.3 23.01-20.08 10.62 7.5 4.38-11.99 21.41 24.41 21.87-20.23 11.99 7.81 3.64-12.23 21.6 24.81 21.71-19.77 11.69 7.55 5-12.7 22.03 24.92 0.47-35.31-2.03 0.97 1.56-18.28z" fill="#FFEA00"/>
  <path d="m5.62 198.8 21.96-16.8 16.33 12.58 9.18-7.03 9.83 11.8 24.66-17.35 14.5 12.58 10.2-7.03 10.08 11.8 23.85-17.35 15.2 12.54 9.41-6.99 11.26 11.8 23.7-17.35 15.63 12.58 10.31-7.03 10.52 11.8 1.67-2.89v21.44l-1.29 0.98-20.54-24.92-6.3 12.7-10.7-7.86-21.76 20.08-20.86-24.81-5.12 12.23-11.56-7.81-21.56 20.23-21.1-24.76-5 12.34-10.62-7.5-23.09 20.08-19.8-24.38-17.53 3.99-21.46 20.39v-20.08z" fill="#FF4A08"/>
  <path d="m12.3 5.21 3.72 10.81 11.21 1.64 24.65-9.22-16.49-1.43-2.66-1.8h-20.43z" fill="#004E9D"/>
  <path d="m16.61 7.01 9.41 3.93 1.87-3.52-11.28-0.41z" fill="#FFEA00"/>
  <path d="m112.5 6.13-1.17 4.18 8.71 2.81-1.41-6.99h-6.13z" fill="#004E9D"/>
  <path d="m129.4 6.05 1.68 6.61 16.2 5.15 22.78-9.37-12.38-1.43-1.18-0.96h-27.1z" fill="#004E9D"/>
  <path d="m135.5 7.97 0.51 5.31 8.16-0.51-4.53-4.33-4.14-0.47z" fill="#FFEA00"/>
  <path d="m138.9 8.05 4.33 0.66 3.6 1.29 0.58-2.07-8.51 0.12z" fill="#FFEA00"/>
  <path d="m230.4 6.05 0.78 4.26 8.71 2.42-2.58-6.68h-6.91z" fill="#004E9D"/>
  <path d="m9.77 235.9 9.25 2.81 2.23 5.2h-9.49l-1.99-8.01z" fill="#004E9D"/>
  <path d="m39.06 227-6.14 16.86h7.39l15.47-12.27-2.66-7.66-14.06 3.07z" fill="#004E9D"/>
  <path d="m70.12 238.9 30.35-14.89 15.74 9.61 2.81 10.28h-19.02l-3.12-6.18 12.14-1.83-5.5 1.25-4.5 0.74-3.79 6.02h-8.12l0.78-3.95-4.8 0.78-12.97-1.83z" fill="#009A01"/>
  <path d="m104.4 230.9 8.35 3.4-0.5 6.83-5.15-4.18-2.7-6.05z" fill="#FFEA00"/>
  <path d="m102.9 239.6 3.49-1.99 3.39 3-5.08 0.4-1.8-1.41z" fill="#FFEA00"/>
  <path d="m127.6 236.1 10.31 1.99 2.03 5.79h-10.15l-2.19-7.78z" fill="#004E9D"/>
  <path d="m157.1 227.5-6.09 16.45h6.6l16.29-12.5-2.89-7.66-13.91 3.71z" fill="#004E9D"/>
  <path d="m188.4 238.7 30.08-14.61 15.86 9.81 4.29 10h-13.67l-2.89-7.85-8.05 2.22-1.95 5.63h-7.39l1.37-3.83-5.15 0.66-12.5-2.03z" fill="#009A01"/>
  <path d="m222.9 231.6 8.8 3.63 0.86 5.75-6.8-4.89-2.86-4.49z" fill="#FFEA00"/>
  <path d="m220.8 239.8 3.83-1.65 3.31 2-3.2 0.9-3.94-1.25z" fill="#FFEA00"/>
  <path d="m9.77 117.1 7.96 2.27 2.66 5.5 9.38 2.07 9.29-17.73 13.52-3.75 3.12 7.34-16.09 12.97 12.5 0.86-22.73 11.17-14.07-7.3-5.54-13.4z" fill="#004E9D"/>
  <path d="m17.23 125.8 8.16 3.44-0.62 3.59-7.54-3.83v-3.2z" fill="#FFEA00"/>
  <path d="m20.78 124.9 5.51 0.08 1.99 1.84-2.58 0.66-4.92-2.58z" fill="#FFEA00"/>
  <path d="m70.12 119.7 30.35-14.53 15.74 9.8 4.88 16.45-10.58-3.68-1.49-4.45-21.94 1.21 1.04-4.18-6.17 0.86-11.83-1.48z" fill="#009A01"/>
  <path d="m104.4 112.1 8.35 3.4 0.51 6.21-6.16-3.56-2.7-6.05z" fill="#FFEA00"/>
  <path d="m102.1 120.1 3.54-1.41 3.4 2.07-3.24 0.94-3.7-1.6z" fill="#FFEA00"/>
  <path d="m128 117.3 9.06 1.8 3.2 5.94 9.22 1.33 7.81-17.27 13.44-3.83 2.85 7.69-15.78 12.67 12.27 0.43-21.14 11.17-15.46-6.49-5.47-13.44z" fill="#004E9D"/>
  <path d="m135.9 124.9 8.16 3.44-0.98 3.79-7.18-3.4v-3.83z" fill="#FFEA00"/>
  <path d="m139.6 125.8 5.31-0.47 1.96 1.33-2 1.48-5.27-2.34z" fill="#FFEA00"/>
  <path d="m188.8 119.8 30.12-14.49 17.03 9.61 4.57 16.88-10.74-4.14-0.86-3.56h-24.5l1.37-3.59-6.72 0.82-10.27-1.53z" fill="#009A01"/>
  <path d="m223.6 112.6 8.67 2.69 0.28 5.75-6.64-2.82-2.31-5.62z" fill="#FFEA00"/>
  <path d="m221.4 120.4 3.71-1.41 3 1.76-2.57 0.74-4.14-1.09z" fill="#FFEA00"/>
</svg>