<svg xmlns="http://www.w3.org/2000/svg" width="200" height="200" viewBox="0 0 200 200">
<!-- SVG created with Arrow, by QuiverAI (https://quiver.ai) -->
  <path d="m195 4.04h-189.5v193.3h189.5v-193.3z" fill="#2E0B5B"/>
  <path d="m10.19 4.04 2.07 7.05 13.66-7.05h-15.73z" fill="#009636"/>
  <path d="m188.2 4.04-1.49 6.88-18.55-6.88h20.04z" fill="#009636"/>
  <path d="m105.4 4.04 2.56 6.88 14.68-6.88h-17.24z" fill="#009636"/>
  <path d="m75.14 4.04 14.8 6.88 5.22-6.88h-20.02z" fill="#009636"/>
  <path d="m195 50.91-15.98-11.17-16.69 8.37-7.04-4.3-1.74-2.41-10.43 5.62 1.04-7.66-14.05-4.18-14.78 13.68-6.57-6.59-13.41 10.14-12.72-14.75-14.78 10.15-5.71-2.7-2 1.6-2.93-4.88-8.79 5.04-10.43-8.36-17.56 10.15-6.57-6.6-8.39 7.5v3.95l11.92 4.04 15.33 0.58 10.98-0.89 5.59 4.98 6.57-2.12 0.87-4.88 9.26 7.15 17.83-9.39 7.2 6.89 8.38-6.89 13.4 4.57 10.44-0.31 9.25-0.3 13.8-3.73 15.03 9.7 17.1-10.15 8.38 7.19 8.2-5.99v-3.05z" fill="#008C00"/>
  <path d="m195 61.06-3.37 1.46-4.83 6.29-7.78-7.49-10.43 10.14v-9.44l-1.89-3.21-2.63 1.6v5.62l-0.94 0.58-11.13-2.12-3.64 8.36 4.91 0.31-0.34 1.75-3.79 2.12 0.59 8.36 4.9-7.49v2.71l13.07 11.32 13.41-13.68 3.64 4.26 0.88-6.73 9.37-8.66v-6.06z" fill="#F43600"/>
  <path d="m195 147.3-17.56-11.91-15.82 10.15-7.51-6.89-1.43 2.41-8.38-5.67-2.1 8.81-12.08-8.81-14.78 10.73-6.57-6.59-8.67 6.89-2.34-9.35-3.04 1.2-0.87 5.28-11.22-8.36-15.33 11.23-7.17-6.59-9.25 6.89-13.74-10.45-16.12 9.5-7.16-6.59-8.39 7.49v3.94l3.65 0.73-3.65 6.6 4.39 2.11 5.39-1.2 0.87-3.8 9.26-0.59 8.38 0.59 13.06-2.12 6.24-2.71 13.41 5.99 10.77-1.5 10.43 0.31 10.44-4.88 6.24 1.8-4.62 6.3 4.32 1.2 6.84-1.2 1.24-3.09 10.98-0.89 8.99 0.58 13.4-4.57 14.06 6.88 18.12-2.41 8.1-0.6 9.22-4.18v-2.66z" fill="#008C00"/>
  <path d="m195 175.9-7.78-8.36-8.93 8.36-4.25-5.28 5.88-4.55-9.83-7.15-13.7 8.01-2.63-5.99-2.63 7.49 0.59 3.65 2.63-0.3-1.23 1.81-0.57-0.3 1.9 6.59 12.8-4.99v-7.5l4.25 2.41-0.48 16.59 1.9 0.3 1.9-3.01v-8.08l2.34 4.28 1.27 3.01 8.38-8 8.19 9.45v-8.44z" fill="#FFD700"/>
  <path d="m195 100-9.83-7.19-15.08 8.09 15.69 7.5 7.16-6.89 2.06-1.51z" fill="#008C00"/>
  <path d="m189.7 97.01 1.7 3.95-0.51 2.02-2.44-1.76-0.36-2.76 1.61-1.45z" fill="#0032A0"/>
  <path d="m184.5 99.96 3.11-1.35 2 1.1-0.7 1.71-2.31 0.5-2.1-1.96z" fill="#0032A0"/>
  <path d="m108.8 92.82-5.57 4.43v5.83l5.23 5.03 15.7-7.79-15.36-7.5z" fill="#008C00"/>
  <path d="m105.1 96.06-1.89 1.6-0.2 3.41 2.63-1.61 1.6-1.6-2.14-1.8z" fill="#FFD700"/>
  <path d="m106.1 99.46 2.1-0.65 1.7 1.51-1.13 1.95-2.67-2.81z" fill="#0032A0"/>
  <path d="m90.92 92.52-15.33 8.09 15.7 7.5 5.56-6.59-2.5-6.3-3.43-2.7z" fill="#008C00"/>
  <path d="m92.73 96.41 1.9 1.6 0.73 2.71-2.31-0.86-2.43-0.95 2.11-2.5z" fill="#FFD700"/>
  <path d="m90.62 100.3 2.64-0.91 2.63 1.51-2.63 1.5-2.64-2.1z" fill="#0032A0"/>
  <path d="m13.51 92.82-5.88 6.29 5.57 9 16.05-8.4-15.74-6.89z" fill="#008C00"/>
  <path d="m10.02 97.01 2.63-0.6 0.77 1.85-1.21 2.66-3.1-1.21 0.91-2.7z" fill="#FFD700"/>
  <path d="m9.11 100.6 1.57-0.91 2.31 0.3-0.98 2.11-2.9-1.5z" fill="#0032A0"/>
  <path d="m119.2 171.2-13.75-3.95-4.9 2.76 1.33 3.95 14.78 3.94 3.27-3.64-0.73-3.06z" fill="#910E07"/>
  <path d="m155.6 121.2-9.33-1.2-0.87 3.65 1.9 3.35 8.38 1.51 2.18-3.65-2.26-3.66z" fill="#910E07"/>
  <path d="m186.1 117.6-16.03-8.09-13.13 11.44-1.26 0.6 1.26 10.5 3.92-0.45 12.04-11.85 11.52 6.89 2.93-0.9 3.33-4.49-1.9-4.89-3.02 6.29 0.34-5.05z" fill="#910E07"/>
  <path d="m121.1 169.7 0.34 9.45 3.2 3.3-4.62 3.66h-0.85l0.59-20.96-4.62-3.35 5.76-3.65 10 8.5 4.9-3.35 0.87 6.89-6.17 3.66-9.4-4.15z" fill="#F43600"/>
  <path d="m137.7 167.2-5.88 8.06-8.93-1.5 1.33 3.94 7.17 5.16 6.87-8.1 8.63 9.55v-8.14l-9.19-8.97z" fill="#F9DA1B"/>
  <path d="m151.1 194.8 4.01-4.94 7.99 6.29 7.79 0.85h-17.65l-2.14-2.2z" fill="#009636"/>
  <path d="m151.7 194.8-1.7 1.3v1.26h3.64l0.17-1.61-2.11-0.95z" fill="#FFD700"/>
  <path d="m191.9 197-4.29-11.85-3.96 6.59 3.96 5.26h4.29z" fill="#00529E"/>
  <path d="m143.8 197-3.33-11.25-1.9-1.2-2.17 2.1-1.47 5.99 4.89 2.41 0.29 1.95h3.69z" fill="#00529E"/>
  <path d="m108.4 189.8 8.23 5.29 7.79 2.21h-20.39l-0.86-2.56 5.23-4.94z" fill="#009636"/>
  <path d="m106.3 195.5-2.27-0.4v2.21h4.37l-2.1-1.81z" fill="#FFD700"/>
  <path d="m96.62 197.3-2.14-9.45-1.9-3.05-1.96 1.2-2.14 6.59 4.33 2.41 0.24 2.3h3.57z" fill="#00529E"/>
  <path d="m60.72 189.8 6.84 4.94 8.19 2.56h-20.54l0.24-1.81 5.27-5.69z" fill="#009636"/>
  <path d="m57.69 195-0.97 1.95h4l-1.74-2.21-1.29 0.26z" fill="#FFD700"/>
  <path d="m49.89 197-2.4-10.35-2.27-1.8-1.9 1.8-2.14 4.79 3.96 4.66v0.9h4.75z" fill="#00529E"/>
  <path d="m13.51 189.5 12.8 6.59 7.79 1.21h-24.08l-1.26-1.81 4.75-5.99z" fill="#009636"/>
  <path d="m10.02 194.8-0.91 2.21h3.54l-1.19-2.21h-1.44z" fill="#FFD700"/>
  <path d="m10.19 4.04 0.59 3.95 2.93 0.6-1.45-4.55h-2.07z" fill="#FFD700"/>
  <path d="m103.5 4.04 0.3 3.05 3.33 1.5-0.8-3.9-2.83-0.65z" fill="#FFD700"/>
  <path d="m187.6 4.04v3.35l2.19-0.6 0.88-2.75h-3.07z" fill="#FFD700"/>
  <path d="m92.23 4.04-0.3 4.55 2.63-2.4 0.3-2.15h-2.63z" fill="#FFD700"/>
  <path d="m56.31 4.04 0.89 9.45 2.63 3.35 3.65-4.55 0.3-5.2-1.9-1.2v-1.85h-5.57z" fill="#00529E"/>
  <path d="m150.2 4.04 0.87 8.85 2.34 3.95 4.25-5.5-0.87-4.25 1.33-1.2-0.76-1.85h-7.16z" fill="#00529E"/>
  <path d="m31.77 11.74-12.07 12.22-4.62-4.86-1.37 7.76 5.99 5.88 12.76-10.28 0.25 21.1 4.25-3.35-0.87-3.01-1.9 0.61v-14.75l10.95 7.48 3.64-7.03-0.66-6.29-3.33 6.74-13.02-12.22z" fill="#F43600"/>
  <path d="m51.41 25.11 1.27-1.2 4.52 0.75 5.56 1.45 1.02 2.71-1.02 3-10.08-2.7-1.27-4.01z" fill="#910E07"/>
  <path d="m76.34 12.69-9.33 10.82-4.25-1.2 1.61 13.68 2.55 3.95 10.44-10.45 0.87-7.48 11.45 6.29 4.59 0.52 2.35-8.71 2.93 6.3-2.34 3.96-3.58 0.85-10.43-6.01-5.57-5.7-0.4 4.3-10.44 8.01-1.7-5.56 11.25-13.57z" fill="#910E07"/>
  <path d="m126.4 12.09-12.08 11.52-4.9-3.95-1.23 6.6 6.4 6.88 12.49-11.03-0.94 21.45 3.65-2.4 1.1-3.35-2.14-0.61-1.47-14.14 11.45 6.66 4.26-3.61 1.28-4.85-2.63-3.65-2.91 7.2-12.33-12.72z" fill="#F43600"/>
  <path d="m145.5 26.11 1.23-1.5 4.4 0.6 4.57 0.9 1.54 2.21-0.85 3.5-9.07-2.1-1.82-3.61z" fill="#910E07"/>
  <path d="m170.1 12.69-9.34 10.82-3.65-1.2-0.47 7.41 4.25 6.59 11.16-10.15 0.88-4.8 12.07 6.59 5.71 1.77 3.33-4.61-2.8-5-2.56 7.2-2.55-3.7-16.03-10.92z" fill="#910E07"/>
  <path d="m13.71 26.86-8.25 9.05v5.79l2.17-0.9 5.36-7.49 7.17 7.49 11.76-10.45v-6.24l-11.76 9.45-6.45-6.7z" fill="#FFD700"/>
  <path d="m33.03 22.41 11.76 6.49 4.97 0.52-2.35 8.36-12.4-4.57-1.98-10.8z" fill="#FFD700"/>
  <path d="m50.33 34.91 4.03-1.8 8.12 1.2 0.43 6.9-12.58-3.94v-2.36z" fill="#F9DA1B"/>
  <path d="m63.78 26.26 11.53 1.46v3.05l-8.52 7.19-3.01-11.7z" fill="#910E07"/>
  <path d="m77.92 22.31 2.93 1.5v13.68l-2.34 0.3-0.59-15.48z" fill="#F43600"/>
  <path d="m83.81 33.46 1.89-4.89 8.38 2.7 4.9 0.3-1.82 7.19-13.35-5.3z" fill="#F9DA1B"/>
  <path d="m108.2 26.26-8.82 9.85-0.77 5.85 3.09-1.2 5.88-7.2 6.86 7.2 10.98-10.44-0.47-5.21-10.74 8.1-6.01-6.95z" fill="#F9DA1B"/>
  <path d="m127.1 22.11 10.71 5.91 6.48 1.7-3.57 8.09-10.43-3.95-3.19-4.74v-7.01z" fill="#FFD700"/>
  <path d="m143.1 35.11 3.93-2.69 7.7 1.44 1.5 7.5-11.95-3.95-1.18-2.3z" fill="#FFD700"/>
  <path d="m156.6 26.11 4.25 3.01 10.44-3.01 0.47 6.01-10.77 8.39-4.39-6.89v-7.51z" fill="#F9DA1B"/>
  <path d="m172 22.41 2.63 0.6v20.35l1.9-1.2 0.87-3.65-1.9-0.9v-11.5l-3.5-3.7z" fill="#F43600"/>
  <path d="m178.1 28.82 8.65 3 7.16-0.9-1.6 6.89-14.85-4.6 0.64-4.39z" fill="#F9DA1B"/>
  <path d="m45.14 89.02-4.32 6.89 0.36 1.7 2.63 0.3 1.33 2.71h3.64l-1.1-7.8-2.54-3.8z" fill="#00529E"/>
  <path d="m56.12 100.6 4.9-0.3 0.59 3 2.21 0.6 0.04 5.1-3.74 5.2-2.92-5.2-1.08-8.4z" fill="#00529E"/>
  <path d="m142.6 100-3.64-0.6-1.5-3-2.34-0.6 1.07-4.79 2.7-2.6 2.63 3.2 1.08 8.39z" fill="#00529E"/>
  <path d="m150.2 100.6 4.9-0.3 1.33 3.6 1.27 0.3v4.9l-3.73 5.1-2.77-5.2-1-8.4z" fill="#00529E"/>
  <path d="m43.32 156.1 8.81-3.95 12.96 3.95 0.63 3.34-1.35 0.65-12.24-1.81-9.43 2.41 0.62-4.59z" fill="#00529E"/>
  <path d="m145.5 151.2-5.88 3-2.63 5.84 9.3-1.5 11.89 1.5 1.24-1.2-0.75-2.7 1.6-0.5-12.48-4.44h-2.29z" fill="#00529E"/>
  <path d="m10.02 168.4-4.32 2.75 1.93 3.31 13.38 3.39 3.71-5.5-14.7-3.95z" fill="#910E07"/>
  <path d="m7.63 178.5 3.75-1.8 5.88 0.9 2.9 4.25-1.7 3.36-11.73-3.96 0.9-2.75z" fill="#FFD700"/>
  <path d="m101.7 176.7 4.6-0.6 5.81 1.2 3.03 2.4-1.6 4.91-13.02-4.91 1.18-3z" fill="#FFD700"/>
  <path d="m26.31 158.2-6.15 4.55 5.57 2.7-0.64 20.71 3.33-1.5 1.9-3.06-1.6-1.8-0.3-12.25 7.47 6.31 6.56-10.51-2.2-0.25-4.16 3.3-9.78-8.2z" fill="#F43600"/>
  <path d="m43.32 167.8-6.86 7.46-7.74-2.61-0.6 4.1 7.47 6.11 8.38-8.7 8.16 9.2v-6.89l-8.81-8.67z" fill="#F9DA1B"/>
  <path d="m75.75 158.6-13.62 8-1.9-5.45-3.03 7.25 0.97 3.65 15.33-5.45v14.25l-1.28 0.3 1.6 3.41 3.64 1.8 0.37-17.16 2.38 0.45 5.49-4.3-9.95-6.75z" fill="#F43600"/>
  <path d="m92.58 167.8-9.67 7.77-2.93-0.61 0.23 4.09 2.99 3.81 9.03-8.7 7.16 9.2v-8.1l-6.81-7.46z" fill="#F9DA1B"/>
  <path d="m31.77 108.9-12.48 11.84-4.61-3.64-0.97 7.79 6.45 5.6 12.3-10.1 0.57 19.75 3.06-1.5v-4.55l-1.9-0.45v-13.55l10.95 5.95 3.64-3 0.98-4.95-1.9-3.35-2.72 8-13.37-13.84z" fill="#F43600"/>
  <path d="m33.03 118.7 10.66 6.3 6.07 1.59-2.35 8.36-12.4-4-1.98-12.25z" fill="#FFD700"/>
  <path d="m12.99 123.9-7.53 9.15v5.25l2.17-0.9 5.57-6.9 7.16 7.2 11.41-9.85v-4.85l-11.61 8.4-7.17-7.5z" fill="#FFD700"/>
  <path d="m75.31 58.81h-3.65l-2.23 3.41 0.59 2.71 0.39-0.3v5.63l-12.72-5.63-3.33 8.36 3.81 0.17-4.05 6.89 1.09 4.7 4.33-6.59 12.12 5.99 1.16-24.05 2.49-1.29z" fill="#910E07"/>
  <path d="m41.18 62.02 2.14-0.4 10.44 3.66 0.97 1.5-1.24 3-10.79-2.1-3.25-2.4 1.73-3.26z" fill="#FFD700"/>
  <path d="m37.76 68.53-7.16 1.5-0.28-9.93-2.63-0.3-2.63 3.65v2.13l2.33-0.6v17.47h3.89l1.43-5.99 5.05-1.81 14.92 3.86 1.08-1.81-0.27-3.3-15.33-3.95-0.4-0.92z" fill="#910E07"/>
  <path d="m31.28 82.15 2.47-2.1 3.21-0.9 5.17 3-1.31 3.05-3.69 0.9-5.85-3.95z" fill="#6E0307"/>
  <path d="m7.63 67.68 1.83-3.05 3.19 0.3 13.27 4.2-0.86 4.84-15.95-3.94-1.48-2.35z" fill="#910E07"/>
  <path d="m7.63 78.21 6.08-2.1h5.58l4.33 1.8-3.92 4.24-8.64-0.9-3.43-1.8v-1.24z" fill="#FFEA00"/>
  <path d="m57.2 65.28 13.41 5.25v9.22l-11.35-6.69-4.05-0.07 1.99-7.71z" fill="#F9DA1B"/>
  <path d="m84.39 61.62 7.47 7.19 4.76-7.19 4.9-1.21-1.7 6.02-9.2 10.03-5.88-7.2-11.92 9.25v-7.35l11.57-9.54z" fill="#FFD700"/>
  <path d="m100.5 67.98 1.9-0.6 15.48 3.15-0.4 4.25-15.45-1.81-1.97-2.71 0.44-2.28z" fill="#910E07"/>
  <path d="m100.1 77.91 4.25-1.8 5.88 0.59 4.93 1.81-3.33 4.84-10.77-3.6-0.96-1.84z" fill="#FFEA00"/>
  <path d="m116.6 63.73 2.19-3.63h3.23v6.93l8.38-5.92 4.47-0.4 2.07 7.2-3.23 0.9-5.57-0.3-6.57 5.66v8.28h-2.78v-17.17l-2.19 0.3v-1.85z" fill="#F43600"/>
  <path d="m127.1 68.53 4.32 0.28-0.3 8.2-4.02-3.65v-4.83z" fill="#320232"/>
  <path d="m126.2 72.66 3.65 5.25 8.63-8.5 7.16 7.5 0.68 7.84-7.84-7.74-9.67 9.09-5.54-2.4 2.93-11.04z" fill="#FFEA00"/>
  <path d="m141.7 55.72 8.06-0.3 0.19 8.31-2.6 0.9-6.12-2.11 0.47-6.8z" fill="#00529E"/>
  <path d="m145.2 131.1 3.16-2 5.99 1.5v6.2l-9.15-2.1v-3.6z" fill="#FFEA00"/>
  <path d="m126.2 108.7 12.75 11.89 3.38-6.39 2 3.65-1.18 7.24-3.5 1.2-11.51-7.49 0.67 14.44 1.33 1.5-2 4.25-1.94 0.9v-21.09l-10.84 10.44-6.91-6.3 0.67-6.29 5.26 3.64 11.82-11.59z" fill="#F43600"/>
  <path d="m108.2 123-8.12 9.15-1.47 5.55 1.91 0.3 7.06-6.9 7.16 6.6 10.68-10.8v-4.85l-10.11 7.45-7.11-6.5z" fill="#F9DA1B"/>
  <path d="m77.36 108.9 12.32 9.45 0.94 4.99 3.33-8.49 1.82 4.55-0.91 5.14-4.24 2.04-10.13-6.29-0.51 19.5-2.52 0.4-0.23-17.2-10.6 7.5-7.37-6.9-8.39 9.45v5.25l1.81-0.9 6.03-6.6 7.75 6.9 10.77-12.3 0.13-16.49z" fill="#F43600"/>
</svg>